<?xml version="1.0" encoding="UTF-8"?>
<svg id="Layer_1" data-name="Layer 1" xmlns="http://www.w3.org/2000/svg" xmlns:xlink="http://www.w3.org/1999/xlink" viewBox="0 0 123.11 414.8">
  <defs>
    <style>
      .cls-1 {
        fill: url(#linear-gradient-2);
      }

      .cls-2 {
        fill: url(#linear-gradient-6);
      }

      .cls-3 {
        fill: none;
        stroke: #00ffa0;
        stroke-miterlimit: 10;
        stroke-width: 2px;
      }

      .cls-4 {
        fill: url(#linear-gradient-5);
      }

      .cls-5 {
        fill: url(#linear-gradient-7);
      }

      .cls-6 {
        fill: url(#linear-gradient-3);
      }

      .cls-7 {
        fill: url(#linear-gradient);
      }

      .cls-8 {
        fill: url(#linear-gradient-4);
      }
    </style>
    <linearGradient id="linear-gradient" x1="-395.02" y1="-193.83" x2="381.86" y2="216.84" gradientUnits="userSpaceOnUse">
      <stop offset="0" stop-color="#050825"/>
      <stop offset=".36" stop-color="#026c57"/>
      <stop offset=".67" stop-color="#01bb7e"/>
      <stop offset=".89" stop-color="#00ec96"/>
      <stop offset=".99" stop-color="#00ffa0"/>
    </linearGradient>
    <linearGradient id="linear-gradient-2" x1="-417.75" y1="-150.84" x2="359.14" y2="259.83" xlink:href="#linear-gradient"/>
    <linearGradient id="linear-gradient-3" x1="-440.47" y1="-107.85" x2="336.42" y2="302.82" xlink:href="#linear-gradient"/>
    <linearGradient id="linear-gradient-4" x1="-463.2" y1="-64.86" x2="313.69" y2="345.8" xlink:href="#linear-gradient"/>
    <linearGradient id="linear-gradient-5" x1="-485.92" y1="-21.87" x2="290.97" y2="388.79" xlink:href="#linear-gradient"/>
    <linearGradient id="linear-gradient-6" x1="-508.64" y1="21.11" x2="268.25" y2="431.78" xlink:href="#linear-gradient"/>
    <linearGradient id="linear-gradient-7" x1="-531.37" y1="64.1" x2="245.52" y2="474.77" xlink:href="#linear-gradient"/>
  </defs>
  <polygon class="cls-3" points="122.11 28.89 122.11 1 107.4 1 75.56 26.93 43.71 1 29 1 29 28.89 75.56 66.8 122.11 28.89"/>
  <polygon class="cls-3" points="122.11 83.89 122.11 56 107.4 56 75.56 81.93 43.71 56 29 56 29 83.89 75.56 121.8 122.11 83.89"/>
  <polygon class="cls-3" points="122.11 138.89 122.11 111 107.4 111 75.56 136.93 43.71 111 29 111 29 138.89 75.56 176.8 122.11 138.89"/>
  <polygon class="cls-3" points="122.11 193.89 122.11 166 107.4 166 75.56 191.93 43.71 166 29 166 29 193.89 75.56 231.8 122.11 193.89"/>
  <polygon class="cls-3" points="122.11 248.89 122.11 221 107.4 221 75.56 246.93 43.71 221 29 221 29 248.89 75.56 286.8 122.11 248.89"/>
  <polygon class="cls-3" points="122.11 303.89 122.11 276 107.4 276 75.56 301.93 43.71 276 29 276 29 303.89 75.56 341.8 122.11 303.89"/>
  <polygon class="cls-3" points="122.11 358.89 122.11 331 107.4 331 75.56 356.93 43.71 331 29 331 29 358.89 75.56 396.8 122.11 358.89"/>
  <polygon class="cls-7" points="93.11 46.89 93.11 19 78.4 19 46.56 44.93 14.71 19 0 19 0 46.89 46.56 84.8 93.11 46.89"/>
  <polygon class="cls-1" points="93.11 101.89 93.11 74 78.4 74 46.56 99.93 14.71 74 0 74 0 101.89 46.56 139.8 93.11 101.89"/>
  <polygon class="cls-6" points="93.11 156.89 93.11 129 78.4 129 46.56 154.93 14.71 129 0 129 0 156.89 46.56 194.8 93.11 156.89"/>
  <polygon class="cls-8" points="93.11 211.89 93.11 184 78.4 184 46.56 209.93 14.71 184 0 184 0 211.89 46.56 249.8 93.11 211.89"/>
  <polygon class="cls-4" points="93.11 266.89 93.11 239 78.4 239 46.56 264.93 14.71 239 0 239 0 266.89 46.56 304.8 93.11 266.89"/>
  <polygon class="cls-2" points="93.11 321.89 93.11 294 78.4 294 46.56 319.93 14.71 294 0 294 0 321.89 46.56 359.8 93.11 321.89"/>
  <polygon class="cls-5" points="93.11 376.89 93.11 349 78.4 349 46.56 374.93 14.71 349 0 349 0 376.89 46.56 414.8 93.11 376.89"/>
</svg>