<?xml version="1.0" encoding="UTF-8"?>
<svg id="Layer_1" data-name="Layer 1" xmlns="http://www.w3.org/2000/svg" viewBox="0 0 127.71 575.43">
  <defs>
    <style>
      .cls-1 {
        fill: none;
        stroke: #00ffa0;
        stroke-miterlimit: 10;
        stroke-width: 2px;
      }
    </style>
  </defs>
  <path class="cls-1" d="m43.81,564.9l81.59-155.05V33.49h1.31v376.67s-81.74,155.34-81.74,155.34c1.98,1.41,2.68,4.08,1.52,6.29-1.27,2.41-4.25,3.33-6.66,2.07-2.41-1.27-3.33-4.25-2.07-6.66,1.16-2.21,3.76-3.15,6.05-2.31Z"/>
  <path class="cls-1" d="m1.57,534.72c1.16-2.21,3.76-3.15,6.05-2.31l81.59-155.05V1h1.31v376.67S8.77,533.02,8.77,533.02c1.98,1.41,2.68,4.08,1.52,6.29-1.27,2.41-4.25,3.33-6.66,2.07-2.41-1.27-3.33-4.25-2.07-6.66Z"/>
  <path class="cls-1" d="m19.17,433.49c-1.27,2.41-4.25,3.34-6.66,2.07-2.41-1.27-3.34-4.25-2.07-6.66,1.16-2.21,3.76-3.15,6.04-2.32l32.08-61.04v-160.71h1.31v161.03s-32.23,61.33-32.23,61.33c1.98,1.41,2.68,4.08,1.52,6.29Z"/>
</svg>