<?xml version="1.0" encoding="UTF-8"?>
<svg id="Layer_1" data-name="Layer 1" xmlns="http://www.w3.org/2000/svg" viewBox="0 0 8 9.89">
  <defs>
    <style>
      .cls-1 {
        fill: #00ffa0;
      }
    </style>
  </defs>
  <path class="cls-1" d="m4.23,0C2.73-.12,1.47,1.05,1.47,2.53v1.05h-.84c-.35,0-.63.28-.63.63v5.05c0,.35.28.63.63.63h6.74c.35,0,.63-.28.63-.63v-5.05c0-.35-.28-.63-.63-.63h-.84v-.98c0-1.32-.98-2.48-2.3-2.59Zm1.88,2.59v.98H1.89v-1.05C1.89,1.32,2.89.36,4.11.42c1.1.06,1.99,1.07,1.99,2.17ZM.63,4h6.74c.12,0,.21.09.21.21v5.05c0,.12-.09.21-.21.21H.63c-.12,0-.21-.09-.21-.21v-5.05c0-.12.09-.21.21-.21Zm2.75,2.26c-.04.23.05.44.2.57v.57c0,.18.11.36.28.42.29.09.56-.12.56-.4v-.59c.13-.11.21-.27.21-.46,0-.34-.25-.61-.59-.63-.32-.02-.61.21-.67.52Z"/>
</svg>