<?xml version="1.0" encoding="UTF-8"?>
<svg id="Layer_1" data-name="Layer 1" xmlns="http://www.w3.org/2000/svg" viewBox="0 0 11.28 11.38">
  <defs>
    <style>
      .cls-1 {
        fill: #00ffa0;
      }
    </style>
  </defs>
  <path class="cls-1" d="m10.57,11.38c-.04-.18-.07-.36-.11-.53-.46-1.77-1.84-3.14-3.62-3.59-1.77-.45-3.67.13-4.89,1.49-.67.74-1.08,1.6-1.23,2.59,0,.01,0,.03,0,.04H0s0-.03,0-.05c.02-.12.04-.25.07-.37.26-1.26.87-2.31,1.83-3.15.58-.51,1.23-.88,1.96-1.12.01,0,.03-.01.05-.02-.84-.49-1.42-1.2-1.69-2.14-.21-.74-.18-1.47.08-2.19C2.82.91,4.22-.05,5.74,0c1.54.05,2.87,1.07,3.31,2.54.46,1.54-.17,3.28-1.68,4.13.07.02.13.05.19.07,1.85.66,3.24,2.25,3.64,4.18.03.15.05.31.08.46h-.71Zm-4.93-4.98c1.57,0,2.84-1.27,2.84-2.84,0-1.57-1.27-2.85-2.83-2.85-1.58,0-2.86,1.27-2.86,2.84,0,1.57,1.27,2.85,2.84,2.85Z"/>
</svg>