<?xml version="1.0" encoding="UTF-8"?>
<svg id="Layer_1" data-name="Layer 1" xmlns="http://www.w3.org/2000/svg" xmlns:xlink="http://www.w3.org/1999/xlink" viewBox="0 0 2367.43 461.22">
  <defs>
    <style>
      .cls-1 {
        fill: url(#linear-gradient-2);
      }

      .cls-2 {
        fill: url(#linear-gradient-17);
      }

      .cls-3 {
        fill: url(#linear-gradient-15);
      }

      .cls-4 {
        fill: url(#linear-gradient-18);
      }

      .cls-5 {
        fill: url(#linear-gradient-28);
      }

      .cls-6 {
        fill: url(#linear-gradient-14);
      }

      .cls-7 {
        fill: url(#linear-gradient-20);
      }

      .cls-8 {
        fill: url(#linear-gradient-6);
      }

      .cls-9 {
        fill: url(#linear-gradient-11);
      }

      .cls-10 {
        fill: url(#linear-gradient-10);
      }

      .cls-11 {
        fill: url(#linear-gradient-16);
      }

      .cls-12 {
        fill: url(#linear-gradient-31);
      }

      .cls-13 {
        fill: url(#linear-gradient-21);
      }

      .cls-14 {
        fill: url(#linear-gradient-25);
      }

      .cls-15 {
        fill: url(#linear-gradient-5);
      }

      .cls-16 {
        fill: url(#linear-gradient-7);
      }

      .cls-17 {
        fill: url(#linear-gradient-24);
      }

      .cls-18 {
        fill: url(#linear-gradient-9);
      }

      .cls-19 {
        fill: url(#linear-gradient-22);
      }

      .cls-20 {
        fill: url(#linear-gradient-3);
      }

      .cls-21 {
        fill: url(#linear-gradient);
      }

      .cls-22 {
        fill: url(#linear-gradient-27);
      }

      .cls-23 {
        fill: url(#linear-gradient-29);
      }

      .cls-24 {
        fill: url(#linear-gradient-30);
      }

      .cls-25 {
        fill: url(#linear-gradient-23);
      }

      .cls-26 {
        fill: url(#linear-gradient-19);
      }

      .cls-27 {
        fill: url(#linear-gradient-4);
      }

      .cls-28 {
        fill: url(#linear-gradient-8);
      }

      .cls-29 {
        fill: url(#linear-gradient-12);
      }

      .cls-30 {
        fill: url(#linear-gradient-13);
      }

      .cls-31 {
        fill: url(#linear-gradient-26);
      }
    </style>
    <linearGradient id="linear-gradient" x1="-834.39" y1="-501.65" x2="175.02" y2="-501.65" gradientUnits="userSpaceOnUse">
      <stop offset="0" stop-color="#00ffa0"/>
      <stop offset=".11" stop-color="#00ec96"/>
      <stop offset=".33" stop-color="#01bb7e"/>
      <stop offset=".64" stop-color="#026c57"/>
      <stop offset="1" stop-color="#050825"/>
    </linearGradient>
    <linearGradient id="linear-gradient-2" x1="-850.98" y1="-526.18" x2="172.93" y2="-526.18" xlink:href="#linear-gradient"/>
    <linearGradient id="linear-gradient-3" x1="-867.56" y1="-550.7" x2="171.71" y2="-550.7" xlink:href="#linear-gradient"/>
    <linearGradient id="linear-gradient-4" x1="0" y1="212.19" x2="2232.42" y2="212.19" gradientUnits="userSpaceOnUse">
      <stop offset="0" stop-color="#00ffa0"/>
      <stop offset=".06" stop-color="#00e392"/>
      <stop offset=".21" stop-color="#01a975"/>
      <stop offset=".35" stop-color="#02785c"/>
      <stop offset=".49" stop-color="#034f48"/>
      <stop offset=".63" stop-color="#043039"/>
      <stop offset=".76" stop-color="#041a2e"/>
      <stop offset=".89" stop-color="#040c27"/>
      <stop offset="1" stop-color="#050825"/>
    </linearGradient>
    <linearGradient id="linear-gradient-5" x1="16.24" y1="202.15" x2="2236.49" y2="202.15" xlink:href="#linear-gradient-4"/>
    <linearGradient id="linear-gradient-6" x1="32.49" y1="192.12" x2="2242.69" y2="192.12" xlink:href="#linear-gradient-4"/>
    <linearGradient id="linear-gradient-7" x1="48.73" y1="182.24" x2="2246.75" y2="182.24" xlink:href="#linear-gradient-4"/>
    <linearGradient id="linear-gradient-8" x1="64.98" y1="172.48" x2="2250.81" y2="172.48" xlink:href="#linear-gradient-4"/>
    <linearGradient id="linear-gradient-9" x1="81.22" y1="163.05" x2="2254.87" y2="163.05" xlink:href="#linear-gradient-4"/>
    <linearGradient id="linear-gradient-10" x1="97.47" y1="155.29" x2="2258.93" y2="155.29" xlink:href="#linear-gradient-4"/>
    <linearGradient id="linear-gradient-11" x1="113.52" y1="151.72" x2="2260.75" y2="151.72" xlink:href="#linear-gradient-4"/>
    <linearGradient id="linear-gradient-12" x1="129.76" y1="148.25" x2="2264.82" y2="148.25" xlink:href="#linear-gradient-4"/>
    <linearGradient id="linear-gradient-13" x1="146" y1="144.79" x2="2268.9" y2="144.79" xlink:href="#linear-gradient-4"/>
    <linearGradient id="linear-gradient-14" x1="142.39" y1="155.58" x2="2278.65" y2="155.58" xlink:href="#linear-gradient-4"/>
    <linearGradient id="linear-gradient-15" x1="138.96" y1="166.49" x2="2288.57" y2="166.49" xlink:href="#linear-gradient-4"/>
    <linearGradient id="linear-gradient-16" x1="135.34" y1="177.29" x2="2298.29" y2="177.29" xlink:href="#linear-gradient-4"/>
    <linearGradient id="linear-gradient-17" x1="131.73" y1="188.14" x2="2308.02" y2="188.14" xlink:href="#linear-gradient-4"/>
    <linearGradient id="linear-gradient-18" x1="128.31" y1="199.04" x2="2317.96" y2="199.04" xlink:href="#linear-gradient-4"/>
    <linearGradient id="linear-gradient-19" x1="124.7" y1="210.41" x2="2327.76" y2="210.41" xlink:href="#linear-gradient-4"/>
    <linearGradient id="linear-gradient-20" x1="121.11" y1="223.28" x2="2337.63" y2="223.28" xlink:href="#linear-gradient-4"/>
    <linearGradient id="linear-gradient-21" x1="117.67" y1="235.49" x2="2347.64" y2="235.49" xlink:href="#linear-gradient-4"/>
    <linearGradient id="linear-gradient-22" x1="114.08" y1="247.76" x2="2357.5" y2="247.76" xlink:href="#linear-gradient-4"/>
    <linearGradient id="linear-gradient-23" x1="114.1" y1="251.54" x2="2358.32" y2="251.54" xlink:href="#linear-gradient-4"/>
    <linearGradient id="linear-gradient-24" x1="114.13" y1="259.54" x2="2359.14" y2="259.54" xlink:href="#linear-gradient-4"/>
    <linearGradient id="linear-gradient-25" x1="114" y1="271.44" x2="2359.79" y2="271.44" xlink:href="#linear-gradient-4"/>
    <linearGradient id="linear-gradient-26" x1="114.02" y1="281.18" x2="2360.66" y2="281.18" xlink:href="#linear-gradient-4"/>
    <linearGradient id="linear-gradient-27" x1="114.03" y1="293.46" x2="2361.55" y2="293.46" xlink:href="#linear-gradient-4"/>
    <linearGradient id="linear-gradient-28" x1="114.05" y1="307.63" x2="2362.43" y2="307.63" xlink:href="#linear-gradient-4"/>
    <linearGradient id="linear-gradient-29" x1="114.07" y1="312.91" x2="2363.3" y2="312.91" xlink:href="#linear-gradient-4"/>
    <linearGradient id="linear-gradient-30" x1="114.08" y1="314.53" x2="2364.18" y2="314.53" xlink:href="#linear-gradient-4"/>
    <linearGradient id="linear-gradient-31" x1="114.1" y1="315.9" x2="2365.04" y2="315.9" xlink:href="#linear-gradient-4"/>
  </defs>
  <g>
    <path class="cls-21" d="m-831.39,92.09c6.72-106.72,22.33-215.23,65.07-314.06,20.74-47.94,48.03-93.07,82.62-132.32,33.92-38.49,74.04-70.98,116.86-99.04,86.1-56.44,181.75-95.77,273.62-141.49,104.68-52.09,204.02-115.07,294.88-188.73,84.45-68.47,166.07-157.03,174.69-270.92,1.03-13.64.85-27.31-.5-40.92-.19-1.9-3.19-1.92-3,0,5.71,57.57-11.11,114.9-39.92,164.43s-68.93,90.62-111.97,127.47c-89.74,76.83-190.46,142.08-295.51,195.9-91.45,46.86-187.3,85.53-274.92,139.66-42.7,26.38-83.32,56.57-118.57,92.43-36.03,36.66-65.55,79.07-88.38,125.08-46.75,94.22-66.15,199.68-75.1,303.71-1.11,12.92-2.05,25.86-2.87,38.81-.12,1.93,2.88,1.92,3,0h0Z"/>
    <path class="cls-1" d="m-847.97,51.35c7.39-104.78,25.48-210.79,68.89-307.13,21.46-47.63,49.26-92.51,84.01-131.61,33.52-37.72,73.03-69.59,115.18-97.18,85.64-56.06,180.83-95,272.23-140.31,104.71-51.9,205.32-112.94,298.58-183.45,84.56-63.94,167.24-146.28,181.94-256.45,1.72-12.91,2.36-25.9,1.92-38.92-.06-1.93-3.06-1.93-3,0,1.85,55.78-17.31,110.05-47.21,156.58-30.15,46.91-71.13,85.7-114.53,120.22-91.95,73.13-193.49,135.39-298.01,188.77-91.43,46.69-187.29,85.15-274.86,139.17-42.03,25.93-81.99,55.57-116.79,90.72-35.99,36.36-65.71,78.51-89.07,123.98-47.31,92.09-69.13,195.28-79.11,297.68-1.23,12.63-2.27,25.27-3.16,37.92-.14,1.93,2.86,1.92,3,0h0Z"/>
    <path class="cls-20" d="m-864.56,10.61c8.05-103.16,28.48-207.03,72.83-301.1,21.69-46,49.17-89.35,82.89-127.5,33.78-38.2,73.71-70.41,116.36-98.19,84.99-55.37,179.36-93.8,270.05-138.47,104.69-51.56,206.43-110.09,302.06-177.06,85.26-59.71,169.6-136.7,190.03-243.71,2.3-12.07,3.64-24.28,4.06-36.56.06-1.93-2.94-1.93-3,0-1.81,54.12-23.26,105.53-54.3,149.32-32.04,45.2-74.39,81.91-118.85,114.44-93.73,68.6-195.37,127.4-298.95,179.72-91.33,46.12-186.91,84.48-274.28,138.13-42.27,25.96-82.44,55.71-117.36,91.07s-64.7,76.98-88.26,121.26c-47.72,89.7-71.77,190.32-82.76,290.79-1.38,12.6-2.54,25.23-3.52,37.86-.15,1.93,2.85,1.92,3,0h0Z"/>
  </g>
  <g>
    <path class="cls-27" d="m2.6,308.18c28.21-25.25,75.76-25.4,111.19-25.54,62.79-.26,125.63,7.73,187.73,16.24,158.74,21.73,316.28,51.73,475.63,69.06,77.7,8.45,156.01,14.35,234.22,12.29,85.67-2.26,170.45-15.73,252.94-38.73,58.42-16.29,116.73-39.99,177.57-45.45,29.69-2.66,58.22.86,87.04,8.06,52.91,13.22,106.19,25.45,160.28,32.76,102.19,13.8,205.48,6.98,297.87-42.11,43.6-23.17,83.33-53.02,120.57-85.28,35.64-30.87,69.53-64.56,95.79-103.93,12.57-18.83,23.04-38.86,31.17-59.99.69-1.8-2.21-2.58-2.89-.8-18.2,47.3-49,87.97-84.42,123.76-35.63,36-75.27,69.07-117.45,97.12-43.05,28.63-89.92,51.18-140.37,63.14-53.31,12.64-108.63,14.04-163.03,9.27-55.6-4.88-110.44-16.06-164.66-28.99-32.85-7.83-64.73-17.23-98.76-17.03-57.53.33-112.95,20.99-167.39,37.27-83.2,24.88-167.82,41.83-254.67,46.72-75.58,4.26-151.53-.13-226.79-7.3-161.54-15.38-321.15-45.31-481.65-68.49-63.82-9.21-128.09-17.95-192.6-20.17-39.85-1.37-86.3-2.75-123.15,15.21-5.89,2.87-11.39,6.42-16.28,10.79-1.44,1.29.69,3.41,2.12,2.12h0Z"/>
    <path class="cls-15" d="m18.82,306.07c26.81-25.44,73.54-26.53,108.03-27.4,59.91-1.52,120.05,4.77,179.47,11.73,154.14,18.05,307.08,45.11,461.41,61.71,73.73,7.93,147.94,13.94,222.16,13.24,82.81-.79,165.14-12.67,245.33-33.09,62.91-16.02,125.45-40.77,190.49-46.57,31.82-2.84,61.98,1.28,92.91,8.65,53.32,12.72,107.04,24.31,161.49,30.96,52.85,6.45,106.53,8.19,159.38.86,50.71-7.03,99.61-23.2,145.54-45.64,45.11-22.03,87.15-50.06,126.15-81.59,35.92-29.04,69.38-61.76,95.65-99.93,12.61-18.31,23.24-37.78,31.8-58.3.74-1.78-2.16-2.56-2.89-.8-38.31,91.82-121.39,161.45-204.6,211.94-45.34,27.51-94.41,49.59-145.96,62.47-53.36,13.34-108.8,15.8-163.51,12.01-57.19-3.96-113.71-14.65-169.55-27.26-34.65-7.83-68.41-17.69-104.21-17.46-60.83.39-119.64,21.96-177.55,38.13-82.5,23.04-166.96,38.87-252.72,41.99-72.08,2.62-144.35-2.2-216.07-9.14-155.17-15.02-308.85-41.82-463.46-61.31-62.32-7.86-125.12-15.09-188-15.75-38.21-.4-82.66-.57-117.58,17.37-5.77,2.96-11.14,6.59-15.85,11.06-1.4,1.33.72,3.45,2.12,2.12h0Z"/>
    <path class="cls-8" d="m35.05,303.96c25.07-25.24,70.1-27.43,103.25-29.06,58.13-2.87,116.67,2.02,174.49,7.67,149.76,14.64,298.43,38.77,448.09,54.33,70.01,7.28,140.38,13.12,210.81,13.42,78.77.34,156.78-9.9,233.48-27.72,67.56-15.69,134.56-41.22,203.99-47.32,34.06-2.99,66.06,1.67,99.22,9.18,53.82,12.2,108.02,23.22,162.91,29.39,53.94,6.06,108.69,7.28,162.52-.55,50.75-7.38,100.53-22.89,147.4-43.52,85.81-37.77,169.54-95.64,225.45-171.89,14.12-19.26,26.16-39.87,35.9-61.68.78-1.75-1.8-3.28-2.59-1.51-40.66,91.07-122.64,158.94-208.14,206.57-95.31,53.09-201.29,79.05-310.33,73.71-57.58-2.82-114.61-12.49-170.95-24.33-37.97-7.98-75.47-19.25-114.54-19.49-64.87-.4-127.89,22.06-189.94,38.24-79.56,20.76-161.02,35.66-243.38,37.64-69.39,1.67-138.89-3.23-207.93-9.77-150.42-14.23-299.69-38.2-449.89-54.39-60.43-6.52-121.35-12.29-182.2-11.67-37.36.38-81.1,1.07-114.78,19.57-5.47,3-10.55,6.64-14.96,11.07-1.36,1.37.76,3.49,2.12,2.12h0Z"/>
    <path class="cls-16" d="m51.27,301.85c23.54-25.15,67.28-28.3,99.28-30.59,56.81-4.07,114.2-.43,170.87,4.07,145.59,11.54,290.22,32.79,435.54,47.05,68.2,6.69,136.68,12.29,205.24,13,72.24.74,142.81-7.91,213.48-23.05,72.9-15.62,145.24-42.15,219.93-47.75,38.85-2.91,74.86,4.09,112.68,12.1,54.47,11.54,109.35,21.78,164.83,26.99,106.83,10.03,212.61-4.63,311.97-45.65,86.12-35.55,168.88-91.11,225.16-166.33,14.11-18.86,26.27-39.02,36.34-60.32.82-1.74-1.76-3.26-2.59-1.51-42.03,88.87-121.58,155.19-207.1,200.54-96.44,51.15-206.79,77.11-315.87,73.39-57.35-1.96-114.26-10.61-170.52-21.55-41.41-8.05-82.73-20.48-125.14-21.46-69.99-1.62-138.36,21.93-205.55,38.33-75.65,18.46-152.49,32.25-230.52,33.27-66.24.86-132.53-3.84-198.46-9.78-145.98-13.15-291.12-34.33-437.1-47.49-59.33-5.35-119.14-9.88-178.76-8.04-36.34,1.12-78.93,2.68-111.31,21.39-5.34,3.09-10.3,6.8-14.52,11.31-1.32,1.41.8,3.53,2.12,2.12h0Z"/>
    <path class="cls-28" d="m67.49,299.74c22.09-25.08,64.6-29.1,95.55-32,55.19-5.16,111.11-2.73,166.33.62,142.24,8.63,283.68,27.23,425.55,40.07,66,5.98,132.19,11.15,198.48,12.14,27.77.42,55.59.09,83.3-1.95,36.1-2.65,71.83-9.21,107.26-16.37,44.28-8.95,88.01-20.24,131.98-30.56,35.91-8.43,72.25-16.14,109.18-18.06,43.64-2.27,84.71,7.33,127.25,15.69,53.74,10.56,107.86,19.81,162.5,24.22,105.93,8.55,213.8-6.11,313-44.77,86.77-33.81,169.22-88.46,226.04-163.13,14.1-18.53,26.37-38.3,36.73-59.15.86-1.72-1.73-3.25-2.59-1.51-43.59,87.72-122.13,153.36-208.27,197.3-95.88,48.9-207.72,72.82-315.12,70.78-57.11-1.08-113.87-8.78-170.03-18.82-45.88-8.2-91.89-21.75-138.62-23.78-75.47-3.28-149.62,21.03-222.28,37.88-70.21,16.28-140.18,28.82-212.34,29.36-64.25.48-128.51-3.93-192.5-9.29-142.49-11.93-284.36-30.53-426.99-40.87-57.92-4.2-116.31-7.49-174.38-4.53-35.49,1.81-77.33,4.12-108.48,23.32-5.06,3.12-9.74,6.82-13.68,11.29-1.27,1.44.84,3.57,2.12,2.12h0Z"/>
    <path class="cls-18" d="m83.71,297.63c20.88-25.21,62.65-29.96,92.83-33.38,53.79-6.09,108.46-4.74,162.44-2.43,138.84,5.95,277.07,21.95,415.53,33.26,117.11,9.56,237.72,21.4,353.87-1.83,47.44-9.49,94.36-21.2,141.55-31.79,39.52-8.87,79.52-16.86,120.09-18.52,46.69-1.91,91.2,8.34,136.81,16.85,55.7,10.4,111.74,19.7,168.29,23.89,195.36,14.45,417.93-42.59,542.48-203.89,14.09-18.25,26.47-37.67,37.08-58.13.89-1.71-1.7-3.23-2.59-1.51-97.26,187.49-327.22,265.34-526.79,262.79-59-.75-117.68-8.53-175.75-18.49-47.93-8.21-96.02-21.51-144.68-24.27-82.78-4.69-164.47,20.89-244.33,38.88-37.03,8.34-74.38,17.21-112.22,20.93-24.65,2.43-49.45,3.18-74.2,3.25-62.32.19-124.64-3.82-186.75-8.55-138.99-10.58-277.58-26.65-416.79-34.3-57.2-3.15-114.87-5.34-172.07-1.15-34.17,2.5-74.52,5.65-104.04,25.01-4.8,3.15-9.21,6.84-12.88,11.27-1.22,1.48.89,3.61,2.12,2.12h0Z"/>
    <path class="cls-10" d="m99.93,295.52c19.47-25.02,59.77-30.54,88.89-34.5,52.91-7.2,106.9-6.81,160.16-5.45,135.76,3.46,271.11,17,406.51,26.7,62.86,4.5,125.83,8.59,188.87,9.55,45.47.69,92.26.9,137.05-8.04,92.37-18.45,183.34-50.18,278.37-51.72,50.49-.82,99.64,10.74,149.27,18.48,55.71,8.69,111.68,15.81,167.87,20.58,54.87,4.66,110.06,8.37,164.94,2.07s104.24-19.5,153.51-38.8c87.85-34.42,169.74-87.37,227.83-162.73,13.33-17.3,25.18-35.63,35.53-54.85.92-1.7-1.67-3.22-2.59-1.51-45.7,84.82-121.64,149.57-207.22,192.1-48.7,24.2-100.36,42.73-153.59,54.03-55.16,11.71-110.22,13.63-166.33,10.41-58.61-3.36-117.04-9.57-175.17-17.69-28.66-4-57.26-8.47-85.79-13.32-23.17-3.93-46.21-8.65-69.67-10.56-91.49-7.43-182.14,18.97-270.26,39.74-28.54,6.73-56.6,13.51-85.82,16.14-23.94,2.15-48,2.79-72.03,2.85-61.01.15-122.01-3.41-182.86-7.5-136.27-9.16-272.3-22.87-408.82-27.98-55.58-2.08-111.62-3.16-167.08,1.96-33.43,3.09-73.12,6.91-101.55,26.69-4.56,3.17-8.72,6.86-12.13,11.25-1.17,1.51.94,3.64,2.12,2.12h0Z"/>
    <path class="cls-9" d="m116.39,293.1c18.33-25.13,58.59-31.17,86.94-35.53,52.28-8.04,105.79-8.51,158.57-8,133.6,1.29,266.94,12.6,400.24,20.65,61.44,3.71,122.96,7.12,184.52,7.71,43.75.42,88.77.6,131.89-7.88,15.08-2.97,29.79-7.68,44.61-11.69,26-7.02,52.11-13.69,78.43-19.45,49.25-10.77,99.47-18.32,150-17.66,54.43.72,108.15,12.74,161.76,21.11,56.29,8.79,112.74,16.77,169.47,22.27,55.66,5.4,110.89,7.69,166.55.72,51.83-6.5,102.81-19.41,151.56-38.17,87.06-33.5,167.52-86.49,225.46-160.39,13.57-17.32,25.71-35.65,36.42-54.87.94-1.69-1.65-3.2-2.59-1.51-101.12,181.46-327.5,268.64-527.58,255.36-58.45-3.88-116.65-11.17-174.59-19.64-55.15-8.07-110.21-19.91-165.65-25.56-100.6-10.24-200.21,15.41-296.34,42.13-40.83,11.35-84.3,12.07-126.41,12.28-59.68.31-119.37-2.7-178.94-6.09-134.02-7.64-267.94-19.13-402.2-21.92-54.66-1.13-109.76-1.24-164.17,4.83-32.74,3.65-71.95,8.15-99.24,28.53-4.3,3.21-8.11,6.9-11.28,11.24-1.14,1.56,1.46,3.06,2.59,1.51h0Z"/>
    <path class="cls-29" d="m132.61,290.99c17.34-25.38,57.29-32.03,85.13-36.79,51.07-8.74,103.46-10.1,155.17-10.45,132.36-.9,264.63,8.39,396.76,14.81,59.88,2.91,119.83,5.61,179.79,5.8,42.6.13,86.44.21,128.42-8.02,6.9-1.35,13.72-3.03,20.39-5.26,26.34-8.79,52.62-17.27,79.67-23.67,53.48-12.67,108.46-18.81,163.42-16.79,57.36,2.11,114.03,13.88,170.38,24.01,56.62,10.18,113.39,20.26,170.78,25.03,108.18,8.98,220.08.13,322.27-38.27,86.58-32.53,166.31-86.21,224.3-158.77,14-17.51,26.58-36.08,37.74-55.52.96-1.68-1.63-3.19-2.59-1.51-48.47,84.4-124.87,149.84-211.94,192.16-99.16,48.2-210.4,64.72-319.87,61.66-116.58-3.25-228.84-34.46-344.1-48.13-52.27-6.2-105.18-5.08-157.21,2.75-27.44,4.13-54.59,10.08-81.31,17.55-19.73,5.51-38.86,12.96-58.54,18.54-37.69,10.69-79,10.71-117.86,11.16-58.69.68-117.41-1.71-176.03-4.4-132.44-6.07-264.87-15.49-397.5-16.14-54.17-.26-108.77.53-162.56,7.54-31.89,4.15-70.14,9.28-96.35,29.75-4.21,3.28-7.93,7.05-10.94,11.46-1.09,1.6,1.51,3.1,2.59,1.51h0Z"/>
    <path class="cls-30" d="m148.84,288.88c16.44-25.74,56.4-32.97,83.88-38.1,51.27-9.58,103.99-11.68,156.02-12.75,131.93-2.73,263.92,4.71,395.72,9.45,59.19,2.13,118.44,4.11,177.67,3.55,40.42-.38,82.43-.5,122.07-9.46,6.06-1.37,12.07-3.02,17.85-5.29,20.88-8.19,40.99-16.84,62.76-22.58,52.86-13.94,108.08-16.85,162.48-13.86,116.98,6.42,230.04,40.83,346.25,53.42,203.59,22.07,425.98-30.68,559.33-196.09,14-17.37,26.67-35.72,38-54.93.98-1.67-1.61-3.18-2.59-1.51-50.34,85.3-128.22,151.59-217.19,194.11-101.8,48.65-216.64,65.15-328.65,59.35-117.19-6.07-230.32-39.9-346.56-53.19-52.17-5.96-105.15-7.62-157.32-.78-26.94,3.53-53.6,9.33-79.35,18.03-14.6,4.93-28.33,12.1-42.91,16.93-35.1,11.63-74.95,11.61-111.5,12.49-57.47,1.38-115.01-.3-172.44-2.22-132.36-4.41-264.77-12.03-397.25-10.81-53.57.49-107.52,2.09-160.63,9.58-32.25,4.55-71.45,10.12-97.62,31.46-4.12,3.36-7.75,7.21-10.61,11.69-1.04,1.63,1.55,3.14,2.59,1.51h0Z"/>
    <path class="cls-6" d="m145.28,303.21c9.71-12.65,25.93-19.12,40.67-23.73,21.65-6.77,44.36-10.12,66.85-12.59,62.17-6.84,125.11-6.75,187.58-6.42,155.4.82,310.47,6.05,465.72-4.12,33.2-2.17,66.38-4.8,99.47-8.22,17.19-1.78,34.41-3.77,51.38-7.11,15.01-2.95,28.47-8.31,42.75-13.56,75.03-27.6,157.11-28.74,235.64-19.21,84.12,10.2,166.46,31.66,249.92,45.81,82.39,13.98,166.64,20.54,249.97,11.59,76.68-8.24,152.82-29.02,219.62-68.22,68.17-39.99,124.71-95.67,183.51-147.76,14.48-12.83,28.73-25.89,42.19-39.79,1.34-1.39-.77-3.51-2.12-2.12-28.74,29.66-60.92,55.76-91.45,83.52-30.06,27.33-60.38,54.19-93.61,77.67-65.72,46.42-139.61,74.86-218.82,88.27-86.57,14.66-175.61,11.2-262.15-1.84-83.23-12.53-164.94-33.35-248.12-46.16-75.67-11.65-154.35-14.85-229.14,4.13-18.39,4.67-35.76,11.36-53.49,17.96-13.78,5.13-28.53,7.63-43.02,9.77-34.62,5.11-69.73,7.69-104.61,10.3-155.17,11.58-310.17,7.82-465.57,6.29-65.36-.65-131.05-1.17-196.24,4.33-23.59,1.99-47.28,4.74-70.37,10.09-15.98,3.7-32.66,8.56-46.41,17.83-4.85,3.27-9.16,7.11-12.73,11.75-1.17,1.53,1.43,3.03,2.59,1.51h0Z"/>
    <path class="cls-3" d="m141.49,317.85c10.58-11.63,26.54-17.11,41.34-21.02,22.44-5.94,45.77-8.45,68.86-10.23,63.23-4.87,126.91-3.62,190.27-3.02,75.89.72,151.81,1.72,227.68-.92,78.39-2.73,156.09-11.48,233.64-22.94,34.65-5.12,69.33-10.14,103.93-15.51,16.29-2.53,32.74-5.14,48.6-9.76,17.46-5.09,34.21-11.93,51.95-16.24,79.53-19.31,163.04-12.61,242.63,2.66,163.33,31.34,327.27,78.38,495.1,54.14,77.54-11.2,149.24-37.21,213.29-82.58,64.36-45.59,117.35-104.77,184.71-146.29,15.54-9.58,31.32-18.78,46.67-28.66,1.62-1.04.12-3.64-1.51-2.59-32.27,20.75-66.12,38.96-96.45,62.63-31.11,24.28-59.23,52.23-89.64,77.38-29.83,24.68-61.2,47.76-95.23,66.36-35.51,19.4-73.74,32.42-113.08,41.55-170.07,39.48-341.31-3.59-508.1-37.88-78.06-16.05-157.52-28.04-237.21-17.43-18.55,2.47-36.95,6.13-54.97,11.2-15.91,4.48-31.13,11.1-47.19,15.02-34.42,8.4-70.12,11.9-105.11,17.2-78.55,11.89-157.22,23.09-236.63,27.2-75.68,3.92-151.51,3.51-227.26,2.79-66.84-.63-133.84-2.2-200.63,1.09-24.32,1.19-48.72,3.02-72.73,7.14-17.28,2.97-35.28,6.92-50.74,15.53-5.3,2.95-10.2,6.53-14.29,11.03-1.3,1.43.82,3.55,2.12,2.12h0Z"/>
    <path class="cls-11" d="m137.93,332.18c11.93-11.06,28.98-15.5,44.51-18.65,23.7-4.8,48.07-6.31,72.18-7.24,65.38-2.55,130.92-.04,196.31.67,76.53.84,153.23.41,229.52-6.39,77.08-6.86,152.08-24.22,227.35-41.42,35.07-8.01,70.45-14.1,105.65-21.43,16.05-3.34,31.25-8.4,46.95-12.98,20.46-5.98,41.46-10.04,62.62-12.45,83.13-9.48,164.72,6.6,245.41,25,81.17,18.51,162.37,37.86,245.11,48.08s166.43,13.84,248.21-2.82c37.18-7.57,73.69-18.71,107.53-36.04,31.79-16.27,61.09-36.97,88.87-59.31,29.17-23.46,56.61-48.91,84.47-73.89,32.36-29,66.39-52.32,106.67-68.95,16.63-6.87,33.6-12.89,50.38-19.37,1.78-.69,1.01-3.59-.8-2.89-35.21,13.61-71.03,25.79-103.24,45.89s-59.87,47.68-88.26,73.09c-56.3,50.39-116.38,99.81-189.3,123.56-165.57,53.93-345.11,16.25-509.92-21.35-79.82-18.21-159.55-38.34-242.04-36.8-38.53.72-77.18,5.93-113.97,17.62-34.09,10.83-69.19,15.93-104.15,23.14-76.04,15.68-150.94,36.26-228.1,46.11-76.92,9.82-154.89,11.16-232.33,10.87-68.82-.26-137.67-2.81-206.49-1.66-25.91.43-51.92,1.34-77.66,4.58-17.58,2.21-35.8,5.23-52,12.74-5.69,2.64-11,5.9-15.6,10.17-1.42,1.32.71,3.43,2.12,2.12h0Z"/>
    <path class="cls-2" d="m134.38,346.52c13.51-10.52,31.97-13.86,48.5-16.17,24.94-3.48,50.31-3.9,75.45-3.94,67.17-.1,134.29,3.58,201.46,4.07,76.94.57,154.31-1.92,230.42-13.96,76.82-12.15,149.22-40.18,223.59-61.71,35.03-10.14,71.15-15.66,106.22-25.51,39.24-11.02,78.16-17.54,119.06-17.49,85.46.1,167.03,24.38,249.35,44.27,81.81,19.76,164.23,36.75,248.04,45.28,82.7,8.42,165.49,9.07,245.94-14.66,69.2-20.41,126.82-64.05,180.03-111.37,27.99-24.9,54.66-51.39,83.38-75.46,33.12-27.77,69.93-45.87,111.8-56.37,17.19-4.31,34.62-7.6,51.98-11.15,1.89-.39,1.09-3.28-.8-2.89-35.98,7.35-72.29,14.11-105.89,29.56-35.78,16.46-64.69,42.86-93.38,69.25-54.4,50.05-108.98,102.67-176.08,135.49-75.31,36.84-163.81,44.58-246.43,38.92-88.16-6.04-174.94-20.93-260.98-40.78-80.64-18.6-160.56-44.17-243.37-51.16-38.72-3.27-77.93-2.65-116.26,4.08-18.58,3.26-36.34,8.92-54.57,13.56-18.19,4.63-36.65,8.16-54.95,12.29-74.56,16.82-145.55,46.32-220.02,63.64-78.33,18.22-159.66,22.53-239.85,23.18-70.48.58-140.88-2.82-211.33-3.87-27.27-.41-54.65-.53-81.86,1.54-18.69,1.42-38.17,3.5-55.74,10.42-5.68,2.24-11.02,5.06-15.84,8.82-1.52,1.18.62,3.29,2.12,2.12h0Z"/>
    <path class="cls-4" d="m130.52,361.08c14.87-9.66,33.95-11.98,51.22-13.44,25.49-2.16,51.22-1.56,76.76-.72,68.71,2.25,137.29,7.13,206.07,7.15,77.25.02,156.19-4.39,231.39-23.28s142.37-56.21,215.18-80.29c35.07-11.6,71.86-19.74,107.86-27.97,41.51-9.5,84.54-10.66,126.84-6.88,86.24,7.72,168.58,37.33,252.31,57.58,83.03,20.08,166.96,34.88,251.94,43.65,79.9,8.25,164.36,5.52,239.46-25.91,65.42-27.37,119.26-75.46,170.39-123.38,28.48-26.69,56.06-55.14,87.38-78.55,34.67-25.92,74.42-39.25,117.08-44.62,18.16-2.28,36.43-3.41,54.68-4.65,1.92-.13,1.93-3.13,0-3-37.36,2.55-75.2,4.85-111.01,16.75s-66.91,34.85-95.27,60.54c-55.05,49.87-106.45,104.82-169.44,145.04-70.32,44.89-152.71,60.63-235.35,58.77-44.17-1-88.41-6.79-132.11-13-43.57-6.19-86.86-14.21-129.85-23.64-42.62-9.35-84.93-20.03-127.03-31.48-41.28-11.22-82.18-23.36-124.41-30.63-39.92-6.88-80.64-10.28-121.12-7.49-37.78,2.6-73.84,12.84-110.52,21.56-74.61,17.75-142.09,52.69-214,78.23-76.77,27.26-158.19,36.61-239.27,39.03-72.48,2.17-144.85-1.87-217.23-5.15-28.32-1.28-56.71-2.52-85.07-1.91-19.81.43-40.33,1.34-59.49,6.86-6.66,1.91-13.11,4.48-18.94,8.27-1.61,1.05-.11,3.65,1.51,2.59h0Z"/>
    <path class="cls-26" d="m126.96,375.42c16.33-8.77,36.29-9.84,54.43-10.36,26.07-.76,52.21.94,78.21,2.7,70.04,4.74,139.99,10.79,210.26,9.95,78.27-.94,159.9-8.48,233.71-36.11,70.73-26.48,132.88-72.09,204.32-96.64,38.68-13.29,80.86-24.2,121.61-28.25,42.93-4.27,86.36-.7,128.69,7.1,41.8,7.71,82.01,20.44,122.62,32.7,42.68,12.89,85.75,24.46,129.18,34.56,42.49,9.88,85.3,18.35,128.35,25.39,42.44,6.94,85.32,13.92,128.22,17.15,77.98,5.87,158.63-3.75,227.94-41.83,63.09-34.66,114.67-86.29,166.05-135.84,28.05-27.04,55.98-55.68,88.96-76.77,36.71-23.48,78.88-31.9,121.93-33.02,19.19-.5,38.38.24,57.55.95,1.93.07,1.93-2.93,0-3-38.25-1.42-76.99-2.82-114.65,5.33-38.19,8.26-70.7,27.51-100.21,52.63-57.6,49.04-107.36,106.66-167.94,152.33-29.58,22.3-61.59,41.74-96.4,54.72-40.11,14.95-83.32,21.52-125.97,22.85-45.12,1.41-89.61-4.33-134.17-10.69-44.07-6.29-87.96-13.69-131.56-22.71-42.73-8.84-85.16-19.11-127.22-30.72-42.97-11.86-85.16-26.59-128.4-37.44-39.17-9.83-79.27-16.75-119.68-18.24-40.61-1.5-78.99,4.49-118.33,13.88-36.22,8.65-70.99,19.67-104.59,35.81-35.01,16.82-68.7,36.26-103.57,53.37-37.3,18.3-75.49,32.54-116.08,41.53-40.59,8.99-81.97,14.02-123.45,16.37-73.84,4.17-147.67-.41-221.31-5.81-29.21-2.14-58.45-4.49-87.74-5.23-20.66-.53-41.96-.71-62.26,3.7-6.95,1.51-13.73,3.67-20.01,7.04-1.7.91-.19,3.5,1.51,2.59h0Z"/>
    <path class="cls-7" d="m123.41,389.75c17.9-7.82,39.01-7.55,58.15-7.04,27.33.72,54.59,3.7,81.77,6.5,71.91,7.41,143.96,14.52,216.36,11.95,76.5-2.72,156.35-14.75,225.26-49.66,68.94-34.93,128.1-89.01,202.08-113.81,40.03-13.42,82.32-21.94,124.6-22.08,44.39-.14,88.53,7.39,131.36,18.64,42.53,11.17,83.56,27.05,125.59,39.88,42.62,13.01,85.79,24.15,129.28,33.82,43.91,9.76,88.15,17.97,132.5,25.47,42.13,7.13,84.26,14.82,127.07,16.23,78.14,2.58,152.71-15.22,218.12-58.57,60.64-40.19,110.64-93.89,162.51-144.31,28.38-27.58,57.34-56.31,92.44-75.27,38.92-21.02,83.23-25.36,126.75-23.06,20.63,1.09,41.15,3.54,61.65,6.02,1.91.23,1.9-2.77,0-3-39.96-4.84-80.49-9.56-120.67-4.32-39.62,5.17-74.37,21.48-105.57,46.1-58.92,46.48-107.4,105.13-164.42,153.88-28.42,24.3-58.79,46.61-92.16,63.64-37.12,18.94-77.36,29.8-118.76,33.99-45.34,4.59-90.91,1.33-135.79-5.92-44.49-7.19-88.96-14.61-133.17-23.36-44.26-8.76-88.28-18.8-131.83-30.65-43.21-11.75-85.29-26.45-127.85-40.25-78.54-25.48-163.59-42.17-245.66-24.77-37.59,7.97-74.02,19.01-107.97,37.23-33.78,18.13-65.22,40.26-97.62,60.68-34.08,21.48-69.11,40.85-107.67,53.04-40.56,12.82-82.61,20.55-124.93,24.52-74.94,7.03-150.23,2.15-224.93-5.32-30.37-3.03-60.7-6.59-91.14-8.82-21.44-1.57-43.42-2.92-64.79.1-7.6,1.08-15.03,2.83-22.07,5.91-1.76.77-.24,3.36,1.51,2.59h0Z"/>
    <path class="cls-13" d="m119.49,404.23c18.73-6.51,39.8-5.27,59.26-3.82,28.76,2.15,57.34,6.53,85.9,10.45,71.48,9.83,143.47,17.94,215.73,13.92,77.19-4.29,156.6-21.41,222.1-64.04,65.25-42.46,120.38-103.06,195.71-128.23,85.99-28.73,175.85-15.39,260.29,12.11,43.11,14.04,84.92,31.54,128.32,44.8,42.65,13.03,85.97,23.8,129.53,33.33,44.53,9.74,89.32,18.18,134.07,26.81,43.96,8.48,87.61,16.1,132.57,15.45,78.38-1.14,148.57-28.29,210.61-75.36,58.61-44.48,107.75-99.71,160.42-150.73,29.32-28.4,60.07-57.37,97.83-74.13,41.03-18.21,86.82-18.96,130.71-13.82,22.11,2.59,44,6.66,65.86,10.81,1.89.36,2.7-2.53.8-2.89-40.75-7.74-82.16-15.34-123.83-13.43-40.22,1.84-77.63,14.08-110.67,37.17-31.17,21.78-58.22,49.29-85.04,76.08-26.71,26.67-52.94,53.83-80.51,79.62-55.62,52.04-118.33,98.8-194.04,115.61-93.03,20.66-186.91-3.52-278.22-21.65-89.58-17.78-178.67-38.81-264.18-71.31-79.26-30.12-164.47-56.18-250.27-45.95-39.55,4.72-78.79,16.41-113.45,36.22-31.63,18.08-60.08,41.26-88.75,63.58-31.42,24.47-63.48,49.31-99.8,66.17-37.97,17.62-79.68,28.31-120.92,34.69-77.25,11.96-155.79,7.29-233.02-2.28-31.38-3.89-62.64-8.68-94.03-12.53-23.28-2.85-47.15-5.78-70.64-3.96-7.86.61-15.67,1.84-23.13,4.43-1.81.63-1.03,3.53.8,2.89h0Z"/>
    <path class="cls-19" d="m115.94,418.57c20.42-5.47,42.8-2.73,63.44-.05,30.69,3.97,61.08,10.03,91.58,15.22,72.92,12.4,147.11,21.14,221.06,13.65,40.99-4.15,81.49-13.18,119.9-28.19,35.01-13.69,65.49-32.7,94.2-56.84,59.74-50.25,112.16-115.54,190.21-137.31,84.52-23.57,174.99-.05,254.52,30.54,41.88,16.11,82.8,33.69,125.77,46.9,43.22,13.29,87.18,23.95,131.31,33.76,44.47,9.89,89.12,18.99,133.54,29.11,45.09,10.27,90.92,17.24,137.29,14.67,77.22-4.28,145.06-38.52,204.17-86.73,59.32-48.38,109.37-106.73,164.39-159.69,31.64-30.45,65.79-60.82,108.07-75.22,44.5-15.16,92.52-12.02,138.06-3.72,21.8,3.97,43.36,9.16,64.87,14.48,1.87.46,2.67-2.43.8-2.89-81.85-20.21-170.56-38.39-246.51,9.63-33.84,21.39-62.56,50.29-90.66,78.52-27.32,27.44-53.86,55.65-81.52,82.76-54.8,53.73-115.81,104.99-190.56,127.59-94.9,28.69-189.78,1.19-283.23-18.83-89.13-19.09-178.44-38.63-263.44-72.26-78.99-31.25-158.89-63.86-245.58-60.82-38.25,1.34-76.33,10.31-110.03,28.75-32.3,17.67-60.04,42.85-87,67.61-29.32,26.94-58.05,55.22-91.21,77.52-35.03,23.55-76.2,38.27-117.12,47.78-79.43,18.46-161.76,14.35-241.83,2.55-32.63-4.81-65.03-10.96-97.55-16.42-23.91-4.01-48.33-8.25-72.66-7.97-8.45.1-16.89.85-25.07,3.04-1.86.5-1.07,3.39.8,2.89h0Z"/>
    <path class="cls-25" d="m115.94,418.57c20.79-6.88,43.59-6.43,65.21-5.41,30.21,1.43,60.29,5.08,90.35,8.17,74.47,7.65,149.61,12.67,224.13,2.73,40.2-5.36,79.86-14.97,117.63-29.83,34.95-13.74,65.89-32.91,95.57-55.78,63.99-49.3,122.01-108.4,204.97-122.43,88.44-14.96,179.54,14.44,260.06,48.76,79.2,33.75,160.68,58.79,244.2,79.43,43.5,10.75,87.12,21.15,130.78,31.21,42.59,9.81,86.47,15.46,130.22,13.01,77.07-4.32,145.82-37.57,206.75-83.32,59.82-44.91,112.03-98.82,168.39-147.8,32.55-28.29,67.15-55.65,108.62-69.39,41.8-13.85,86.56-13.89,129.91-9.21,22.25,2.4,44.33,6.05,66.38,9.81,1.89.32,2.7-2.57.8-2.89-81.01-13.8-166.32-24.64-240.58,18.95-33.39,19.6-62.52,45.96-91.12,71.81s-55.84,51.78-84.35,77.01c-57.57,50.94-120.68,99.24-195.71,120.63-91.6,26.11-181.99,2.4-271.71-18.84-84.91-20.1-169.8-41.17-251.38-72.54-41.55-15.98-81.75-34.94-124.2-48.6-39.7-12.78-80.84-22.17-122.59-24.33s-82.3,3.29-120.26,19.29c-33.63,14.17-63.06,36.45-91.38,59.11-31.48,25.19-61.92,52-95.91,73.86-35.6,22.9-75.97,37.84-116.91,48.05-77.58,19.36-158.17,19.17-237.37,12.56-33.08-2.76-66.03-6.7-99.08-9.75-25.06-2.32-50.61-4.6-75.76-2.31-8.98.82-17.89,2.32-26.47,5.15-1.82.6-1.04,3.5.8,2.89h0Z"/>
    <path class="cls-17" d="m115.94,418.57c21.7-8.4,45.49-10.12,68.55-10.83,30.32-.92,60.69.44,90.99,1.46,73.61,2.47,147.51,3.44,220.48-8.16,41.39-6.58,82.21-17.11,121.18-32.63,34.89-13.9,66.47-33.29,97.2-54.71,31.83-22.19,62.68-45.99,96.16-65.7,36.13-21.27,75.35-34.89,117.28-38.34,87.4-7.19,173.58,23.13,252.29,57.91,77.89,34.42,158.73,60.9,240.8,83.37,81.96,22.44,166.72,49.62,252.62,46.33,75.87-2.9,145.28-32.53,207.79-74.15,62.82-41.82,118.62-93,177.75-139.67,34.05-26.87,69.74-52.48,111.4-66.06,41.6-13.57,85.73-15.77,129.15-13.88,20.28.88,40.51,2.64,60.73,4.47,1.92.17,1.91-2.83,0-3-81.56-7.37-164.98-11.02-238.58,30.95-34.01,19.39-64.47,44.72-94.67,69.45-29.72,24.34-59.01,49.22-89.28,72.88-59.8,46.75-125.01,89.79-199.85,107.41-90.53,21.32-178.9-1.69-266.55-24.41-82.47-21.38-164.43-45.12-243.61-76.79-79.4-31.76-155.85-69.35-242.36-77.31-40.74-3.75-82.11-.67-121.06,12.37-35.02,11.73-66.37,31.65-96.53,52.58-32.16,22.32-63.26,46.29-96.88,66.42-36.07,21.59-75.6,36.51-116.17,47.17-76.54,20.11-155.97,23.46-234.73,21.79-57.88-1.23-118.11-8.45-175.64.63-9.99,1.58-19.82,3.9-29.26,7.56-1.78.69-1.01,3.59.8,2.89h0Z"/>
    <path class="cls-14" d="m116.3,418.42c22.97-10.05,48.29-13.93,73.05-16.51,30.54-3.18,61.28-4.14,91.95-5.23,73.18-2.61,146.51-5.73,218.62-19.4,40.72-7.72,80.89-18.68,119.47-33.89,35.38-13.95,68.16-33.07,100.45-52.98,32.62-20.12,64.9-41.22,99.63-57.61,38.56-18.19,80.09-27.71,122.76-27.99,87.53-.56,169.68,32.47,248.24,67.58,74.83,33.45,152.04,61.19,230.5,84.81,78.63,23.67,159.8,49.78,242.73,48.95,76.24-.76,147.5-26.92,212.7-65.03,65.96-38.55,125.54-86.79,187.54-131.16,35.01-25.06,71.17-48.73,112.28-62.54,40.66-13.66,83.56-18.37,126.25-19.67,19.55-.59,39.11-.49,58.66-.36,1.93.01,1.93-2.99,0-3-80.21-.53-161.18,2.04-233.48,40.94-36.17,19.46-69.15,44.59-102.13,68.91-31.09,22.94-61.98,46.17-93.85,68.02-62.65,42.94-130.51,81.16-206.04,95.07-89,16.39-175.35-6.28-260.56-30.39-79.8-22.58-158.6-48.72-235.14-80.72-77.01-32.2-151.41-69.38-235.17-80.84-41.04-5.61-82.96-4.93-123.25,5.29-36,9.13-69,26.21-100.8,45.01-33.67,19.91-66.21,41.73-100.57,60.48-36.72,20.04-75.86,34.73-116.19,45.67-76.17,20.67-155.03,27.21-233.62,30.4-58.48,2.37-119.66.23-176.93,14.09-9.8,2.37-19.38,5.45-28.62,9.5-1.76.77-.24,3.36,1.51,2.59h0Z"/>
    <path class="cls-31" d="m116.3,418.42c51.28-24.81,112.27-28.67,168.03-34.55,73.21-7.72,146.58-14.77,218.64-30.4,39.73-8.62,78.99-19.7,116.98-34.24,35.67-13.66,69.46-31.55,103.12-49.47,34.6-18.42,69.29-37.34,106.26-50.66,39.67-14.3,81.68-20.09,123.75-17.9,85.84,4.45,164.93,38.33,241.98,73.61s148.21,63.32,224.75,88.48c77.56,25.49,157.7,51.4,240.13,51.61,75.92.2,148.12-23.31,215.08-57.76,69.21-35.61,132.81-80.93,198.06-123.09,35.03-22.64,70.99-43.68,110.6-57.28,39.05-13.41,79.9-20.4,120.85-24.83,19.1-2.06,38.26-3.6,57.41-5.15,1.91-.16,1.93-3.16,0-3-78.01,6.34-156.32,14.57-227.18,50.45-70.31,35.6-133.24,85.26-200.54,126.08-65.5,39.73-135.72,74.68-212.08,86.84-88.53,14.1-173.95-7.35-258.15-33.02-79.3-24.18-157.05-53.16-232.96-86.47-75.91-33.31-149.78-70.68-232.44-84.42-37.78-6.28-76.38-7.62-114.28-1.51-37.48,6.05-72.59,19.8-106.58,36.34-35.82,17.43-70.35,37.38-106.07,55-37.88,18.69-77.27,33.39-117.93,44.76-75.52,21.13-153.42,30.95-231.24,39.07-58.87,6.14-120.11,9.47-177,26.98-10.52,3.24-20.79,7.14-30.7,11.94-1.74.84-.22,3.43,1.51,2.59h0Z"/>
    <path class="cls-22" d="m116.3,418.42c52-27.35,112.61-37.22,169.84-47.32,73.54-12.98,147.43-24.08,220.07-41.68,39.33-9.53,78.32-20.78,116.27-34.85,36.97-13.7,72.67-30.5,108.64-46.58,35.71-15.96,71.96-31.64,109.98-41.29,39.91-10.13,81.23-12.57,122.14-8.33,83.18,8.62,159.5,42.67,234.26,77.99,70.85,33.47,142.72,64.95,216.49,91.48,75.22,27.05,153.27,52.86,233.8,55.65s150.9-17.11,220.69-47.73c72.19-31.67,139.51-73.24,207.37-113.06,37.22-21.84,75-42.39,115.76-56.9,37.74-13.44,76.83-22.47,116.15-29.88,18.42-3.47,36.89-6.6,55.35-9.8,1.9-.33,1.09-3.22-.8-2.89-77.86,13.5-155.57,27.79-226.97,63.24-72.14,35.82-138.95,81.73-210.47,118.83-70.73,36.69-146.41,67.25-226.51,73.98-85.07,7.15-166.68-14.79-246.61-41.49-76.59-25.59-151.13-56.87-224.39-90.75-72.74-33.64-144.27-69.73-223.55-85.49-37.65-7.49-76.32-10.45-114.57-6.43-37.16,3.9-72.76,14.41-107.43,28.05-36.18,14.23-71.25,31.1-106.84,46.7-38.26,16.76-77.26,31.14-117.38,42.8-74.67,21.69-151.31,34.98-227.87,47.92-61.38,10.38-124.74,19.17-183.31,41.15-10.83,4.06-21.42,8.71-31.66,14.09-1.71.9-.19,3.49,1.51,2.59h0Z"/>
    <path class="cls-5" d="m116.3,418.42c53.72-30.32,115.07-46.11,174.54-60.81,73.94-18.28,148.55-33.72,222.16-53.37,39.92-10.66,79.56-22.46,118.53-36.24,37.65-13.32,74.71-28.23,112.32-41.63,35.25-12.56,71.21-24.03,108.24-29.98,41.56-6.68,83.77-6.2,125.28.56,79,12.87,151.46,46.31,222.77,81.18,69.87,34.18,140.12,67.81,212.68,95.97,72.87,28.27,148.66,53.56,227.25,57.93,77.98,4.33,154.58-12.72,227.26-40.02,74.36-27.93,144.72-65.34,214.79-102.44,36.37-19.26,72.99-37.84,111.45-52.62s77.57-26.35,117.08-37.11c17.75-4.83,35.54-9.51,53.3-14.31,1.86-.5,1.07-3.4-.8-2.89-76.27,20.6-152.7,40.43-224.29,74.62-72.47,34.61-141.65,75.55-215.09,108.27-73.73,32.85-151.99,59.26-233.17,63.58-82.99,4.41-162.42-16.43-239.92-44.08-76.25-27.21-149.78-61.26-222.56-96.58-69.51-33.73-138.43-68.9-214.02-87.11-74.8-18.02-149.39-15.53-223.05,6.32-76.37,22.65-149.15,55.8-225.52,78.65-75.63,22.62-152.75,39.5-229.57,57.43-62.73,14.64-126.6,29.21-185.98,54.75-12.03,5.17-23.78,10.92-35.18,17.35-1.68.95-.17,3.54,1.51,2.59h0Z"/>
    <path class="cls-23" d="m116.3,418.42c54.94-32.96,116.2-54.59,176.97-74.03,72.5-23.19,146.11-42.74,219.3-63.6,78.2-22.29,155.1-49.12,233.49-70.66,77.69-21.35,155.92-31.13,235.7-15.5s148.87,48.79,218.8,84.3c68.74,34.91,137.19,70.62,208.35,100.44,71.32,29.88,145.86,55.22,223.43,61.11,78.94,5.99,157.55-8.05,232.72-31.56,76.52-23.94,149.85-57.06,222.1-91.54,74.13-35.37,149.33-66.03,226.58-93.88,17.02-6.14,34.05-12.28,51.01-18.58,1.79-.67,1.02-3.57-.8-2.89-72.65,27.01-146.16,51.66-216.79,83.79-75.93,34.54-150.16,72.37-228.46,101.51s-154.9,49.51-235.92,51.45c-81.95,1.97-160.4-18.54-236.41-47.6-75.01-28.68-146.68-65.12-218.14-101.53-68.54-34.92-137.18-70.29-211.92-90.12-73.18-19.41-147.31-20.37-221.25-4.58-78.96,16.86-155.1,45.35-232.42,68.2-74.54,22.03-149.72,41.88-224.19,64.15-63.43,18.97-127.25,39.26-186.8,68.51-12.55,6.17-24.86,12.81-36.85,20.01-1.65.99-.15,3.59,1.51,2.59h0Z"/>
    <path class="cls-24" d="m116.3,418.42c57.86-36.61,120.95-64.56,184.6-89.4,73.01-28.5,147.67-52.68,222.73-75.15,152.96-45.8,315.37-98.81,475.33-58.17,75.61,19.21,145.49,54.03,214.03,90.48,68.28,36.31,135.85,74.28,206.89,105.06,69.45,30.1,142.14,53.39,218.03,58.72,76.72,5.39,153.71-5.8,227.95-24.78,77.47-19.81,152.57-48.1,225.99-79.56,74.98-32.13,149.93-64.64,224.25-98.27,16.68-7.55,33.3-15.25,49.81-23.16,1.74-.83.22-3.42-1.51-2.59-71.65,34.31-145.04,64.85-217.73,96.85-76.29,33.58-153.07,66-232.94,90.22-75.65,22.95-154.4,39.4-233.74,39.68-80.73.29-158.14-18.9-232.69-48.88-72.95-29.33-141.97-67.24-211.15-104.33-66.4-35.6-133.33-71.1-205.53-93.6-73.75-22.98-149.33-29.08-225.92-19.27-79.2,10.15-156.5,32.26-233.04,54.36-142.08,41.03-287.75,84.81-417.99,156.29-13.19,7.24-26.15,14.87-38.87,22.91-1.63,1.03-.12,3.63,1.51,2.59h0Z"/>
    <path class="cls-12" d="m116.3,418.42c126.91-84.19,270.1-146.62,415.51-190.86,142.32-43.3,300.25-74.79,447.71-39.6,154.21,36.8,282.44,135.17,423.31,202.81,68.77,33.02,141.32,58.43,217.48,66.77,77.46,8.48,156.17,1.51,232.51-12.81,162.86-30.56,320.49-93.95,465.39-173.48,16.32-8.96,32.48-18.19,48.5-27.68,1.66-.98.15-3.58-1.51-2.59-142.43,84.33-298.12,151.34-459.44,189.44-79.29,18.73-161.12,30.37-242.75,27.23-80.42-3.1-157.48-24.08-230.83-56.6-141.43-62.7-266.44-160.38-415.52-206.06-142.35-43.62-293.63-22.63-434.88,15.16-148.45,39.71-293.94,99.89-425.55,179.44-13.99,8.46-27.8,17.2-41.43,26.24-1.6,1.06-.1,3.66,1.51,2.59h0Z"/>
  </g>
</svg>