<?xml version="1.0" encoding="UTF-8"?>
<svg id="Layer_1" data-name="Layer 1" xmlns="http://www.w3.org/2000/svg" viewBox="0 0 85.12 221.58">
  <defs>
    <style>
      .cls-1 {
        fill: #00ffa0;
      }
    </style>
  </defs>
  <g>
    <path class="cls-1" d="m43.76,77.46c3.82-3.78,7.74-7.65,11.74-11.61-4.06-3.97-8.04-7.87-11.99-11.73,3.12-3.08,5.98-5.9,8.95-8.84,3.74,3.84,7.63,7.83,11.58,11.88,4.14-4.21,8.02-8.17,11.86-12.08,3.05,3.1,5.89,5.98,8.8,8.94-3.78,3.71-7.73,7.59-11.78,11.57,4.18,4.08,8.16,7.98,12.11,11.85-3.12,3.07-5.99,5.89-8.98,8.82-3.74-3.83-7.63-7.82-11.57-11.86-4.12,4.2-8.01,8.15-11.85,12.06-3.05-3.09-5.89-5.98-8.88-9Zm39.66,0c-3.97-3.9-7.93-7.78-12.17-11.94,4.05-3.95,8.03-7.84,11.83-11.56-2.36-2.42-4.64-4.76-7.08-7.26-3.87,3.94-7.76,7.9-11.88,12.1-3.99-4.09-7.88-8.08-11.63-11.94-2.46,2.42-4.79,4.7-7.39,7.26,3.97,3.87,7.96,7.75,12.2,11.87-4.07,3.99-8.03,7.87-11.91,11.67,2.34,2.36,4.64,4.68,7.16,7.21,3.86-3.97,7.75-7.96,11.83-12.15,4.04,4.12,7.92,8.07,11.78,12,2.38-2.39,4.68-4.69,7.25-7.27Z"/>
    <path class="cls-1" d="m85.12,212.59c-3.16,3.14-5.99,5.95-8.94,8.88-3.84-3.93-7.74-7.9-11.69-11.94-4.11,4.18-7.99,8.14-11.83,12.05-3.06-3.1-5.9-5.98-8.82-8.93,3.79-3.73,7.75-7.61,11.8-11.59-4.18-4.07-8.17-7.96-12.12-11.81,3.13-3.09,5.99-5.92,8.95-8.86,3.75,3.85,7.64,7.83,11.58,11.87,4.13-4.21,8.01-8.16,11.86-12.07,3.05,3.1,5.89,5.98,8.79,8.93-3.78,3.71-7.73,7.59-11.77,11.56,4.19,4.09,8.17,7.99,12.18,11.91Zm-13.94-11.86c4.14-4.04,8.13-7.93,11.87-11.57-2.38-2.47-4.66-4.85-7.24-7.52-3.84,3.97-7.69,7.94-11.75,12.12-3.96-4.07-7.8-8-11.48-11.78-2.49,2.44-4.84,4.74-7.47,7.31,3.92,3.81,7.86,7.65,12.05,11.73-4.05,3.93-8.02,7.78-11.95,11.59,2.49,2.49,4.82,4.82,7.4,7.4,3.86-3.95,7.74-7.94,11.83-12.13,4,4.07,7.89,8.02,11.62,11.81,2.41-2.36,4.76-4.66,7.17-7.02-3.89-3.86-7.8-7.74-12.05-11.94Z"/>
    <path class="cls-1" d="m43.54,144.22c3.14-3.14,5.96-5.96,8.92-8.91,3.78,3.92,7.62,7.9,11.6,12.02,4.17-4.27,8.01-8.21,11.81-12.11,3.01,3.06,5.83,5.92,8.7,8.84-3.77,3.67-7.71,7.51-11.75,11.44,4.29,4.17,8.28,8.05,12.23,11.9-3.15,3.12-6.01,5.95-8.98,8.88-3.75-3.85-7.64-7.83-11.59-11.88-4.14,4.21-8.02,8.17-11.87,12.09-3.03-3.1-5.86-6-8.76-8.97,3.76-3.69,7.71-7.58,11.72-11.51-4.14-4.06-8.1-7.93-12.04-11.78Zm39.76,23.26c-3.89-3.8-7.88-7.69-11.97-11.69,4.06-4.08,7.95-8,11.78-11.85-2.31-2.32-4.64-4.67-7.16-7.2-3.86,3.92-7.75,7.87-11.89,12.09-3.97-4.07-7.86-8.06-11.62-11.91-2.42,2.38-4.75,4.66-7.4,7.25,4,3.84,8.01,7.7,12.23,11.76-4.16,4.06-8.09,7.89-11.89,11.6,2.43,2.48,4.74,4.84,7.33,7.49,3.89-3.9,7.79-7.81,11.88-11.92,3.78,3.87,7.63,7.8,11.46,11.72,2.42-2.45,4.73-4.8,7.24-7.34Z"/>
    <path class="cls-1" d="m43.64,32.46c3.9-3.86,7.82-7.74,11.89-11.78-4.01-3.95-7.96-7.84-11.87-11.69,2.95-2.95,5.8-5.79,8.78-8.78,3.79,3.89,7.63,7.83,11.59,11.88,4.05-4.18,7.89-8.16,11.7-12.1,3.13,3.19,5.94,6.05,8.88,9.03-3.79,3.67-7.76,7.52-11.86,11.49,4.28,4.15,8.25,7.99,12.19,11.81-3.17,3.1-6.04,5.9-9.05,8.85-3.64-3.76-7.49-7.74-11.49-11.87-4.12,4.27-7.97,8.24-11.77,12.18-3.14-3.16-5.98-6.01-8.99-9.03Zm13.57-11.67c-4.14,4.06-8.06,7.91-11.87,11.64,2.44,2.49,4.75,4.84,7.3,7.43,3.84-3.95,7.7-7.91,11.66-11.98,4.05,4.1,7.92,8.02,11.66,11.81,2.46-2.42,4.83-4.76,7.42-7.3-3.91-3.82-7.85-7.66-12.02-11.74,4.1-3.97,8.07-7.81,11.96-11.58-2.52-2.55-4.84-4.91-7.36-7.46-3.86,3.94-7.74,7.9-11.88,12.12-3.98-4.08-7.87-8.07-11.51-11.8-2.47,2.38-4.85,4.66-7.38,7.1,3.93,3.84,7.87,7.69,12.04,11.77Z"/>
    <path class="cls-1" d="m55.7,110.94c-4.19-4.11-8.13-7.97-12.02-11.79,3.01-2.97,5.89-5.81,8.84-8.72,3.72,3.78,7.6,7.74,11.6,11.8,4.07-4.17,7.96-8.16,11.83-12.13,3.06,3.11,5.88,5.98,8.84,9-3.84,3.74-7.83,7.63-11.97,11.66,4.15,4.08,8.08,7.93,11.97,11.74-3.02,2.97-5.87,5.79-8.8,8.67-3.69-3.78-7.54-7.71-11.55-11.83-4.1,4.25-7.94,8.22-11.75,12.16-3.11-3.13-5.94-5.98-8.89-8.94,3.86-3.78,7.79-7.63,11.88-11.64Zm27.67-11.8c-2.58-2.62-4.9-4.97-7.41-7.52-3.87,3.93-7.76,7.88-11.98,12.17-3.93-4.03-7.79-7.99-11.45-11.74-2.43,2.36-4.78,4.65-7.44,7.24,3.92,3.82,7.86,7.65,12.07,11.75-4.04,3.92-8.01,7.77-11.88,11.52,2.45,2.49,4.76,4.84,7.33,7.46,3.87-3.97,7.76-7.96,11.76-12.06,3.97,4.02,7.84,7.94,11.57,11.72,2.45-2.41,4.83-4.75,7.43-7.3-3.91-3.81-7.85-7.66-11.91-11.62,4.05-3.95,7.99-7.8,11.9-11.61Z"/>
  </g>
  <g>
    <path class="cls-1" d="m39.94,32.58c-2.81,2.78-5.41,5.36-8.15,8.08-3.76-3.88-7.61-7.85-11.61-11.97-4.12,4.24-7.97,8.22-11.8,12.17-2.84-2.91-5.42-5.55-8.21-8.4,3.83-3.71,7.81-7.55,11.96-11.57C7.97,16.83,4.03,12.99.12,9.19,2.95,6.39,5.58,3.8,8.31,1.09c3.77,3.84,7.65,7.8,11.6,11.82,4.05-4.1,7.92-8.02,11.75-11.91,2.7,2.76,5.29,5.4,8.06,8.22-3.77,3.64-7.75,7.48-11.97,11.55,4.27,4.13,8.25,7.98,12.2,11.8Z"/>
    <path class="cls-1" d="m31.75,45.96c2.78,2.8,5.35,5.39,8.07,8.13-3.9,3.77-7.88,7.61-11.97,11.55,4.28,4.15,8.22,7.98,12.15,11.8-2.96,2.84-5.62,5.4-8.33,8-3.6-3.68-7.47-7.64-11.45-11.71-4.14,4.22-8.01,8.17-11.85,12.09-2.79-2.8-5.4-5.42-8.14-8.17,3.86-3.75,7.8-7.58,11.92-11.59C7.93,61.97,3.95,58.12,0,54.31c2.91-2.87,5.54-5.46,8.35-8.23,3.74,3.83,7.6,7.79,11.67,11.96,4.03-4.16,7.89-8.13,11.72-12.08Z"/>
    <path class="cls-1" d="m27.88,155.89c4.17,4.08,8.1,7.94,12.02,11.77-2.82,2.71-5.48,5.27-8.3,7.99-3.61-3.72-7.47-7.7-11.49-11.85-4.09,4.22-7.94,8.19-11.75,12.11-2.85-2.84-5.46-5.44-8.19-8.17,3.9-3.8,7.84-7.64,11.98-11.67-4.21-4.06-8.19-7.89-12.15-11.7,2.95-2.89,5.58-5.48,8.35-8.19,3.78,3.83,7.67,7.78,11.65,11.83,4.01-4.05,7.89-7.96,11.73-11.84,2.67,2.7,5.26,5.33,8.06,8.17-3.82,3.7-7.78,7.55-11.91,11.56Z"/>
    <path class="cls-1" d="m8.34,220.85c-2.8-2.79-5.39-5.38-8.14-8.13,3.87-3.77,7.81-7.6,11.94-11.62-4.19-4.05-8.17-7.9-12.11-11.71,2.88-2.86,5.49-5.46,8.33-8.28,3.78,3.89,7.63,7.86,11.69,12.05,4.05-4.15,7.92-8.11,11.76-12.04,2.73,2.74,5.32,5.33,8.07,8.09-3.93,3.8-7.91,7.65-12,11.6,4.23,4.11,8.17,7.94,12.1,11.76-2.93,2.83-5.59,5.4-8.32,8.03-3.63-3.71-7.51-7.67-11.51-11.75-4.11,4.17-8,8.12-11.81,11.99Z"/>
    <path class="cls-1" d="m.37,122.59c3.78-3.72,7.7-7.59,11.79-11.62-4.11-4.02-8.09-7.91-12-11.73,2.78-2.8,5.35-5.39,8.12-8.19,3.83,3.95,7.68,7.92,11.75,12.11,4.05-4.18,7.91-8.15,11.75-12.11,2.72,2.77,5.26,5.36,7.91,8.05-3.85,3.74-7.85,7.62-11.96,11.61,4.26,4.17,8.22,8.05,12.14,11.89-2.78,2.75-5.38,5.32-8.12,8.03-3.73-3.85-7.58-7.82-11.59-11.95-4.11,4.24-7.96,8.21-11.8,12.17-2.79-2.89-5.33-5.52-8-8.28Z"/>
  </g>
</svg>