<?xml version="1.0" encoding="UTF-8"?>
<svg id="Layer_1" data-name="Layer 1" xmlns="http://www.w3.org/2000/svg" xmlns:xlink="http://www.w3.org/1999/xlink" viewBox="0 0 563.52 509.72">
  <defs>
    <style>
      .cls-1 {
        fill: url(#linear-gradient-2);
      }

      .cls-2 {
        fill: url(#linear-gradient-6);
      }

      .cls-3 {
        fill: url(#linear-gradient-10);
      }

      .cls-4 {
        fill: url(#linear-gradient-5);
      }

      .cls-5 {
        fill: url(#linear-gradient-7);
      }

      .cls-6 {
        fill: url(#linear-gradient-9);
      }

      .cls-7 {
        fill: url(#linear-gradient-3);
      }

      .cls-8 {
        fill: url(#linear-gradient);
      }

      .cls-9 {
        fill: url(#linear-gradient-4);
      }

      .cls-10 {
        fill: url(#linear-gradient-8);
      }
    </style>
    <linearGradient id="linear-gradient" x1="1.16" y1="372.48" x2="231.26" y2="372.48" gradientUnits="userSpaceOnUse">
      <stop offset="0" stop-color="#00ffa0"/>
      <stop offset=".11" stop-color="#00ec96"/>
      <stop offset=".33" stop-color="#01bb7e"/>
      <stop offset=".64" stop-color="#026c57"/>
      <stop offset="1" stop-color="#050825"/>
    </linearGradient>
    <linearGradient id="linear-gradient-2" x1="6.93" y1="359.02" x2="268.07" y2="359.02" xlink:href="#linear-gradient"/>
    <linearGradient id="linear-gradient-3" x1="12.7" y1="345.65" x2="304.88" y2="345.65" xlink:href="#linear-gradient"/>
    <linearGradient id="linear-gradient-4" x1="18.48" y1="332.19" x2="341.68" y2="332.19" xlink:href="#linear-gradient"/>
    <linearGradient id="linear-gradient-5" x1="24.26" y1="318.72" x2="378.49" y2="318.72" xlink:href="#linear-gradient"/>
    <linearGradient id="linear-gradient-6" x1="30.05" y1="305.24" x2="415.3" y2="305.24" xlink:href="#linear-gradient"/>
    <linearGradient id="linear-gradient-7" x1="35.83" y1="291.78" x2="452.1" y2="291.78" xlink:href="#linear-gradient"/>
    <linearGradient id="linear-gradient-8" x1="41.62" y1="278.32" x2="488.91" y2="278.32" xlink:href="#linear-gradient"/>
    <linearGradient id="linear-gradient-9" x1="47.41" y1="264.87" x2="525.72" y2="264.87" xlink:href="#linear-gradient"/>
    <linearGradient id="linear-gradient-10" x1="53.2" y1="251.41" x2="562.52" y2="251.41" xlink:href="#linear-gradient"/>
  </defs>
  <path class="cls-8" d="m232.22,507.87c-6.63-22.47-15.63-44.22-26.58-64.93-10.97-20.75-23.87-40.44-38.17-59.05-14.42-18.76-30.21-36.43-46.99-53.1s-34.91-32.71-53.53-47.72-37.81-29.15-57.5-42.64c-2.41-1.66-4.83-3.3-7.26-4.94-1.61-1.08-3.11,1.52-1.51,2.59,19.67,13.26,38.93,27.14,57.55,41.84,18.67,14.74,36.71,30.28,53.82,46.81s32.99,33.7,47.69,52.11c14.53,18.2,27.72,37.49,39.08,57.83s20.84,41.68,27.99,63.84c.87,2.71,1.71,5.43,2.52,8.16.55,1.85,3.44,1.06,2.89-.8h0Z"/>
  <path class="cls-1" d="m269.03,507.11c-6.12-25.1-16.35-49.05-29-71.53s-27.51-43.18-44.05-62.67-35.2-38.06-54.38-55.46c-19.69-17.87-40.18-34.86-60.89-51.53s-42.94-33.92-64.72-50.49c-2.66-2.03-5.33-4.05-8-6.07-1.54-1.17-3.04,1.44-1.51,2.59,21.72,16.46,43.32,33.08,64.62,50.08,20.78,16.58,41.34,33.46,61.22,51.11,19.2,17.04,37.72,34.89,54.77,54.09,16.93,19.07,32.34,39.54,45.45,61.43s24.09,45.33,31.14,69.96c.88,3.08,1.7,6.17,2.45,9.28.46,1.87,3.35,1.08,2.89-.8h0Z"/>
  <path class="cls-7" d="m305.83,506.34c-5.56-27.47-16.89-53.47-31.04-77.55-14.1-23.99-31.1-46.2-49.9-66.69-19.29-21.03-40.55-40.17-62.39-58.49-22.61-18.95-45.86-37.14-68.89-55.57-23.73-18.97-47.39-38.03-70.81-57.38-2.91-2.4-5.81-4.81-8.71-7.22-1.47-1.23-3.61.89-2.12,2.12,23.24,19.32,46.73,38.33,70.31,57.22,23.04,18.47,46.29,36.68,69.08,55.45s43.51,36.88,63.32,57.39c19.32,20,36.92,41.71,51.77,65.24,14.86,23.54,27.21,48.96,34.14,76.01.87,3.4,1.65,6.82,2.34,10.25.38,1.89,3.27,1.09,2.89-.8h0Z"/>
  <path class="cls-9" d="m342.64,505.58c-5.07-30.15-17.71-58.55-33.59-84.49-15.85-25.89-35.13-49.61-56.42-71.21s-46.49-42.53-71.3-61.9-51.49-39.24-76.82-59.39c-25.74-20.47-51.04-41.52-75.68-63.31-2.99-2.64-5.97-5.29-8.94-7.96-1.43-1.29-3.56.83-2.12,2.12,24.37,21.85,49.39,42.96,74.88,63.47,25.11,20.21,50.83,39.61,76.36,59.28s49.55,38.88,72.25,60.68c21.92,21.04,41.94,44.17,58.71,69.53,16.79,25.39,30.73,53.17,37.6,82.97.84,3.64,1.56,7.31,2.18,11,.32,1.9,3.21,1.09,2.89-.8h0Z"/>
  <path class="cls-4" d="m379.44,504.81c-4.61-33.05-18.72-64.05-36.51-92.02-17.66-27.76-39.22-52.91-63.02-75.58-24.97-23.79-52.45-44.76-80.21-65.15-28.32-20.79-56.9-41.2-84.43-63.03-27.63-21.91-54.45-44.87-80.21-68.96-3.15-2.95-6.28-5.91-9.4-8.89-1.4-1.33-3.52.78-2.12,2.12,25.38,24.25,51.82,47.37,79.11,69.44,27.14,21.95,55.27,42.55,83.48,63.1,27.83,20.26,55.56,40.77,81.19,63.81,24.51,22.03,46.98,46.5,65.72,73.65,18.84,27.29,34.51,57.53,41.39,90.18.85,4.02,1.55,8.06,2.11,12.13.27,1.9,3.16,1.09,2.89-.8h0Z"/>
  <path class="cls-2" d="m416.3,504.44c-4.12-35.79-19.43-69.23-38.97-99.14-19.57-29.95-43.62-56.81-70.15-80.75s-58.21-46.82-88.83-68.15c-31.08-21.65-62.24-43.13-91.95-66.64s-58.06-48.39-85.03-74.85c-3.33-3.26-6.63-6.55-9.91-9.86-1.36-1.37-3.48.75-2.12,2.12,26.4,26.62,54.27,51.76,83.35,75.41s59.47,45.39,90.22,66.74c30.64,21.27,61.4,42.51,89.88,66.64,27.36,23.18,52.51,49.17,73.4,78.37,20.73,28.98,38.04,61.43,45,96.65.88,4.46,1.58,8.95,2.1,13.47.22,1.9,3.22,1.92,3,0h0Z"/>
  <path class="cls-5" d="m453.11,503.67c-3.64-38.57-20.37-74.56-41.74-106.41-21.43-31.95-47.88-60.34-77-85.41s-63.82-48.74-97.22-70.96c-33.85-22.53-67.61-45.1-99.53-70.33s-61.91-52.13-90.18-81.06c-3.42-3.5-6.82-7.04-10.19-10.6-1.33-1.4-3.45.72-2.12,2.12,27.61,29.16,57.12,56.49,88.21,81.89s63.71,48.21,97,70.39c33.59,22.38,67.51,44.46,98.94,69.86,29.92,24.18,57.49,51.53,80.33,82.56s41.64,65.67,48.54,103.64c.86,4.74,1.51,9.51,1.96,14.31.18,1.91,3.18,1.92,3,0h0Z"/>
  <path class="cls-10" d="m489.91,502.91c-3.16-41.5-21.44-80.18-44.77-114.07-23.27-33.81-52.01-63.6-83.61-89.69-33.3-27.5-69.74-50.84-106.07-74.07-36.69-23.45-73.12-47.21-107.31-74.26-33.49-26.49-65.08-55.38-94.37-86.45-3.61-3.83-7.19-7.7-10.73-11.6-1.3-1.43-3.42.69-2.12,2.12,28.62,31.48,59.55,60.83,92.43,87.83,32.96,27.07,67.99,51.18,103.84,74.23s73.25,46.17,107.53,72.61c32.64,25.17,62.79,53.92,87.72,86.82,24.85,32.79,45.72,70.3,52.61,111.29.85,5.05,1.45,10.13,1.84,15.23.15,1.91,3.15,1.93,3,0h0Z"/>
  <path class="cls-6" d="m526.72,502.14c-2.66-44.2-22.32-85.36-47.41-121.14-25.17-35.9-56.38-67.29-90.63-94.55-36.22-28.82-75.77-53-115.1-77.26-39.39-24.3-78.33-49.16-114.65-77.93-35.39-28.03-68.55-58.89-98.98-92.24-3.74-4.1-7.43-8.23-11.09-12.4-1.28-1.45-3.39.67-2.12,2.12,29.68,33.82,62.07,65.24,96.78,93.88,35.02,28.91,72.48,54.3,111,78.28,39.09,24.33,78.82,47.79,115.86,75.23,35.43,26.25,68.17,56.45,95.27,91.34s49.38,74.44,56.31,118.11c.87,5.48,1.45,11,1.78,16.55.12,1.92,3.12,1.93,3,0h0Z"/>
  <path class="cls-3" d="m563.52,501.37c-2.16-46.9-23.21-90.58-50.08-128.26-26.91-37.74-60.31-70.5-96.92-98.8-39.02-30.15-81.62-55.15-123.88-80.39-42.06-25.12-83.53-51.03-122.01-81.46-37.63-29.75-72.63-62.81-104.47-98.69-3.89-4.39-7.73-8.82-11.53-13.28-1.25-1.47-3.37.66-2.12,2.12,30.78,36.2,64.69,69.72,101.28,100.05,37.09,30.75,76.98,57.42,118.16,82.33,41.96,25.38,84.73,49.61,124.63,78.21,38.04,27.27,73.24,58.82,102.36,95.58,28.75,36.3,53.01,78.61,59.9,125.01.87,5.83,1.41,11.7,1.68,17.59.09,1.92,3.09,1.93,3,0h0Z"/>
</svg>