<?xml version="1.0" encoding="UTF-8"?>
<svg id="Layer_1" data-name="Layer 1" xmlns="http://www.w3.org/2000/svg" xmlns:xlink="http://www.w3.org/1999/xlink" viewBox="0 0 558.09 951.23">
  <defs>
    <style>
      .cls-1 {
        fill: url(#linear-gradient-2);
      }

      .cls-2 {
        fill: url(#linear-gradient-6);
      }

      .cls-3 {
        fill: url(#linear-gradient-10);
      }

      .cls-4 {
        fill: url(#linear-gradient-5);
      }

      .cls-5 {
        fill: url(#linear-gradient-7);
      }

      .cls-6 {
        fill: url(#linear-gradient-9);
      }

      .cls-7 {
        fill: url(#linear-gradient-3);
      }

      .cls-8 {
        fill: url(#linear-gradient);
      }

      .cls-9 {
        fill: url(#linear-gradient-4);
      }

      .cls-10 {
        fill: url(#linear-gradient-8);
      }
    </style>
    <linearGradient id="linear-gradient" x1="353.16" y1="433.69" x2="520.99" y2="433.69" gradientUnits="userSpaceOnUse">
      <stop offset="0" stop-color="#00ffa0"/>
      <stop offset=".11" stop-color="#00ec96"/>
      <stop offset=".33" stop-color="#01bb7e"/>
      <stop offset=".64" stop-color="#026c57"/>
      <stop offset="1" stop-color="#050825"/>
    </linearGradient>
    <linearGradient id="linear-gradient-2" x1="319.32" y1="438.4" x2="515.26" y2="438.4" xlink:href="#linear-gradient"/>
    <linearGradient id="linear-gradient-3" x1="281.3" y1="443.03" x2="510.93" y2="443.03" xlink:href="#linear-gradient"/>
    <linearGradient id="linear-gradient-4" x1="241.99" y1="447.68" x2="517.51" y2="447.68" xlink:href="#linear-gradient"/>
    <linearGradient id="linear-gradient-5" x1="202.18" y1="452.44" x2="524.09" y2="452.44" xlink:href="#linear-gradient"/>
    <linearGradient id="linear-gradient-6" x1="162.12" y1="457.01" x2="530.68" y2="457.01" xlink:href="#linear-gradient"/>
    <linearGradient id="linear-gradient-7" x1="121.92" y1="461.7" x2="537.28" y2="461.7" xlink:href="#linear-gradient"/>
    <linearGradient id="linear-gradient-8" x1="81.63" y1="466.31" x2="543.89" y2="466.31" xlink:href="#linear-gradient"/>
    <linearGradient id="linear-gradient-9" x1="41.29" y1="470.95" x2="550.5" y2="470.95" xlink:href="#linear-gradient"/>
    <linearGradient id="linear-gradient-10" x1=".91" y1="475.62" x2="557.09" y2="475.62" xlink:href="#linear-gradient"/>
  </defs>
  <path class="cls-8" d="m498.34,629.49c-24.23-10.85-47.84-23.41-69.45-38.9-16.62-11.91-32.12-25.68-44.74-41.82-10.25-13.1-18.47-27.87-23.43-43.77-4.46-14.3-6.18-29.3-5.35-44.25.84-15.03,4.25-29.84,9.3-43.99,5.3-14.85,12.44-29,20.64-42.45,8.48-13.91,18.12-27.09,28.51-39.62,10.38-12.53,21.51-24.45,33.15-35.81,11.09-10.83,22.67-21.16,34.63-31.01,10.56-8.7,21.44-17.02,32.64-24.87,2.39-1.68,4.8-3.33,7.22-4.97,1.59-1.07.09-3.67-1.51-2.59-11.02,7.43-21.72,15.34-32.15,23.59-12.03,9.52-23.67,19.53-34.87,30.01-11.94,11.17-23.38,22.88-34.14,35.2s-21.15,25.63-30.3,39.48-16.67,27.5-22.87,42.33c-5.94,14.2-10.29,29.08-12.29,44.36s-1.49,30.27,1.74,45.05c3.48,15.9,10.16,30.98,19.09,44.56,10.72,16.3,24.47,30.45,39.55,42.76,19.48,15.89,41.18,28.92,63.63,40.13,6.42,3.21,12.92,6.26,19.47,9.2,1.75.78,3.27-1.8,1.51-2.59h0Z"/>
  <path class="cls-1" d="m504.9,664.93c-39.04-18.82-76.45-41.94-108.66-71.09-26.5-23.98-50.12-52.6-63.63-86-12.08-29.85-14.82-62.61-5.89-93.7,4.92-17.12,13.1-33.01,22.86-47.85,11.5-17.48,25.14-33.52,39.9-48.32,8.32-8.35,17.04-16.31,26.06-23.91,9.8-8.26,20.09-15.84,30.3-23.58,19.74-14.97,38.93-30.68,57.39-47.2,4.29-3.84,8.54-7.72,12.75-11.64,1.42-1.32-.71-3.44-2.12-2.12-18.14,16.9-37.03,33-56.52,48.33-10.39,8.17-21.11,15.89-31.52,24.03-9.55,7.47-18.8,15.32-27.68,23.57-16.06,14.92-30.97,31.17-43.91,48.89-10.85,14.87-20.39,30.88-26.83,48.18-11.42,30.68-11.79,64.1-1.68,95.18,11.01,33.83,32.64,63.37,57.72,88.18,30.42,30.09,66.54,54.19,104.4,73.87,5.14,2.67,10.32,5.26,15.54,7.77,1.73.83,3.25-1.75,1.51-2.59h0Z"/>
  <path class="cls-7" d="m511.46,700.38c-41.09-21.61-80.6-46.7-116.65-76.01-35-28.46-68.09-61.56-89.96-101.4-9.71-17.71-17-36.86-20.03-56.89s-1.45-40.41,4.56-59.68,16.28-36.91,28.28-53.04c13.72-18.45,29.86-35.08,47.16-50.2,10.4-9.09,21.27-17.63,32.51-25.66,11.83-8.46,24.26-15.97,36.24-24.2,22.47-15.45,43.4-33.07,62.45-52.58,4.84-4.96,9.56-10.04,14.18-15.21,1.28-1.44-.83-3.57-2.12-2.12-18.79,21.07-39.5,40.41-62.11,57.34-11.62,8.7-23.83,16.4-35.93,24.4-11.99,7.93-23.63,16.39-34.82,25.41-18.87,15.21-36.54,32.04-51.93,50.79-12.69,15.47-24.04,32.33-31.85,50.82-8.05,19.05-11.99,39.67-10.96,60.35s6.38,39.37,14.57,57.51c18.58,41.19,50.31,75.71,84.08,105.07,35.63,30.97,75.25,57.37,116.53,80.17,4.74,2.62,9.51,5.19,14.3,7.71,1.71.9,3.23-1.69,1.51-2.59h0Z"/>
  <path class="cls-9" d="m518.01,735.82c-18.07-10.56-36.06-21.27-53.8-32.38-21.16-13.26-41.98-27.09-62.21-41.73-21.54-15.6-42.43-32.13-62.1-50.04-19.13-17.42-37.22-36.17-52.82-56.84-14.27-18.91-26.63-39.59-34.45-62.03-7.44-21.33-10.49-44.12-7.43-66.58,3.14-23.09,12.53-44.77,25.28-64.14,13.98-21.23,31.55-40.04,50.49-56.92,12.52-11.15,25.76-21.48,39.5-31.08,15.55-10.85,31.86-20.26,48.17-29.89,29.37-17.33,55.81-39.13,78.63-64.46,5.94-6.59,11.63-13.4,17.13-20.37,1.18-1.5-.93-3.64-2.12-2.12-22.01,27.9-47.54,52.85-76.99,72.85-15.26,10.36-31.62,18.87-47.21,28.7s-29.47,19.68-43.28,30.76c-21.69,17.4-41.87,36.98-58.61,59.24-13.68,18.18-24.88,38.44-30.68,60.55s-5.82,45.33-.63,67.58c5.34,22.89,15.82,44.36,28.68,63.94,13.99,21.29,30.85,40.61,48.96,58.48,19.04,18.79,39.57,36.02,60.83,52.23,20.64,15.74,42.03,30.5,63.83,44.59,18.82,12.16,37.96,23.8,57.26,35.18,4.02,2.37,8.04,4.73,12.07,7.08,1.67.98,3.18-1.62,1.51-2.59h0Z"/>
  <path class="cls-4" d="m524.57,771.27c-16.38-10.92-33.31-21.02-50.06-31.34-22.48-13.85-44.85-27.87-66.8-42.54-24.77-16.56-49.06-33.91-72.29-52.58-23.25-18.69-45.56-38.71-65.63-60.82-18.66-20.56-35.54-43.09-47.78-68.1-11.25-22.99-18.23-48.22-17.82-73.95s9.03-52.68,22.7-75.6c13.87-23.26,32.5-43.62,52.5-61.74,31.66-28.68,67.88-51.9,105.74-71.47s67.59-43.88,93.84-74.77c6.97-8.2,13.56-16.71,19.86-25.43,1.13-1.57-1.47-3.07-2.59-1.51-24.94,34.51-55.05,64.85-91.45,87.21-19.44,11.95-40.2,21.57-59.66,33.52-17.67,10.85-34.72,22.73-50.85,35.77-23.45,18.96-45.29,40.53-62.53,65.37-14.68,21.15-25.49,45.26-29.14,70.87s0,50.97,8.88,74.84c9.45,25.4,24.22,48.5,41.14,69.54,18.61,23.15,40,43.99,62.51,63.32s47.21,37.92,72.06,55.18c22.83,15.86,46.22,30.91,69.82,45.6,18.64,11.6,37.48,22.89,55.99,34.69,3.37,2.15,6.72,4.32,10.05,6.54,1.61,1.07,3.11-1.52,1.51-2.59h0Z"/>
  <path class="cls-2" d="m531.43,806.95c-14.56-11.52-30.84-20.95-46.66-30.58-23.84-14.5-47.8-28.79-71.42-43.63-27.81-17.47-55.22-35.6-81.72-55s-54.18-41.72-78.66-65.55c-22.8-22.2-43.95-46.51-60.37-73.87-14.87-24.78-25.75-52.42-28.01-81.43-2.37-30.41,5.17-60.39,19.64-87.08,13.54-25,32.79-46.72,53.55-65.96,35.7-33.1,77.42-59.4,120.94-80.93,21.27-10.52,41.89-21.31,60.83-35.78,18.75-14.32,35.54-31.02,50.47-49.27,8.18-9.99,15.82-20.4,23.05-31.09,1.08-1.6-1.51-3.11-2.59-1.51-27.87,41.18-62.45,76.94-106.12,101.33-11.36,6.34-23.23,11.66-34.81,17.58-12.49,6.38-24.78,13.17-36.81,20.41-20.23,12.17-39.72,25.63-58.01,40.57-24.82,20.26-48.07,43.48-65.57,70.47-15.61,24.07-25.97,51.82-27.74,80.57s5.21,56.91,17.37,82.69c13.29,28.18,32.34,53.4,53.37,76.24,22.92,24.9,48.54,47.24,75.21,68.03,26.63,20.75,54.42,39.98,82.75,58.33,25,16.19,50.45,31.67,75.95,47.06,18.45,11.15,37.18,22.04,54.89,34.36,2.84,1.98,5.66,4.01,8.38,6.16,1.5,1.19,3.64-.92,2.12-2.12h0Z"/>
  <path class="cls-5" d="m537.98,842.39c-4.99-5-10.92-9.1-16.74-13.05-8.75-5.94-17.79-11.47-26.85-16.92-25.13-15.12-50.6-29.67-75.77-44.7-31-18.51-61.67-37.59-91.48-57.96-31.64-21.61-62.42-44.64-91.06-70.14-26.91-23.95-52.25-50.2-72.68-79.98-18.22-26.56-32.57-56.35-37.59-88.39-5.15-32.88.74-66.22,15.14-96.1,13.38-27.76,33.53-51.61,55.77-72.7,39.14-37.11,85.65-66.05,134.06-89.42,13.25-6.39,26.84-12.05,39.82-18.99,11.36-6.08,22.31-12.91,32.72-20.5,21.91-15.99,41.17-35.25,58.03-56.46,9.28-11.67,17.84-23.88,25.9-36.42,1.05-1.63-1.55-3.13-2.59-1.51-16.32,25.4-34.85,49.49-56.89,70.22-19.18,18.04-40.88,33.11-64.34,45.04-13.7,6.97-27.92,12.88-41.69,19.73s-28.56,14.84-42.37,23.07c-22.36,13.33-43.87,28.14-63.95,44.73-25.84,21.35-50.26,45.94-67.83,74.69-16.86,27.59-27.02,59.48-26.67,91.95.34,31.8,10.58,62.56,25.94,90.15,17.08,30.69,40.12,57.85,65.06,82.42,27.16,26.75,56.98,50.7,87.83,73.03,30.16,21.83,61.44,42.09,93.19,61.53,27.26,16.69,54.92,32.7,82.46,48.92,18.15,10.69,36.99,21.07,53.67,34.01,2.36,1.83,4.67,3.76,6.79,5.87,1.37,1.37,3.49-.75,2.12-2.12h0Z"/>
  <path class="cls-10" d="m544.77,878.14c-3.63-5.18-9.12-9.07-14.19-12.71-8.5-6.09-17.45-11.54-26.42-16.89-26.45-15.79-53.47-30.62-80.21-45.93-34.36-19.67-68.45-39.85-101.7-61.35-35.67-23.06-70.49-47.6-103.17-74.77-31.04-25.81-60.53-54.09-84.9-86.38-21.58-28.61-39.38-60.89-46.84-96.2-7.47-35.38-3.1-71.85,11.43-104.89,13.38-30.42,34.39-56.33,58.2-79.25,42.8-41.21,94.41-72.76,147.97-97.94,15.51-7.29,31.53-13.5,46.86-21.16,12.64-6.32,24.84-13.53,36.4-21.68,24.69-17.42,46.09-38.96,64.58-62.8,10.35-13.33,19.81-27.32,28.67-41.68,1.02-1.65-1.58-3.16-2.59-1.51-17.84,28.93-38.27,56.45-63.16,79.73-21.12,19.76-45.26,35.89-71.4,48.26-16.16,7.65-32.78,14.26-48.88,22.06-16.06,7.78-31.85,16.15-47.24,25.19-24.73,14.52-48.51,30.76-70.58,49.09-26.87,22.31-52.54,48.14-70.35,78.46-18.22,31.01-28.47,66.7-26.35,102.79,2.07,35.16,15.26,68.59,33.67,98.31,20.64,33.32,47.5,62.54,76.29,88.97,31.2,28.64,65.1,54.27,100.03,78.16,33.92,23.21,68.95,44.75,104.42,65.5,29.33,17.15,59.03,33.65,88.48,50.59,10.85,6.24,21.68,12.54,32.26,19.23,7.22,4.57,14.55,9.24,20.98,14.91,1.86,1.63,3.78,3.45,5.14,5.4,1.1,1.57,3.7.07,2.59-1.51h0Z"/>
  <path class="cls-6" d="m551.48,913.94c-1.91-5.3-7.39-9.22-11.68-12.48-8.12-6.17-16.9-11.48-25.66-16.68-27.86-16.55-56.54-31.71-84.9-47.37-37.42-20.66-74.61-41.77-110.99-64.22-39.75-24.53-78.66-50.6-115.4-79.47-35.07-27.55-68.53-57.73-96.84-92.3-25.11-30.66-46.5-65.5-56.62-104.12s-7.26-77.15,7.07-113.42c13.17-33.34,35-61.54,60.43-86.48,46.18-45.3,102.69-79.49,161.17-106.45,31.86-14.69,64.76-26.07,94.01-45.86,27.45-18.57,50.99-42.15,71.14-68.37,11.83-15.4,22.51-31.64,32.45-48.32.99-1.66-1.6-3.17-2.59-1.51-19.36,32.48-41.71,63.48-69.51,89.31-23.39,21.74-50.4,38.99-79.61,51.82-18.62,8.17-37.51,15.57-55.89,24.32s-35.32,17.64-52.37,27.58c-26.73,15.58-52.4,33.09-76.13,52.96-27.8,23.26-54.58,50.29-72.54,82.09-19.66,34.81-29.95,74.48-25.76,114.49,4.01,38.34,20.18,74.23,41.57,105.93,24.28,35.97,55.03,67.3,87.74,95.63,35.18,30.47,73.08,57.72,112.03,83.13s76.1,47.21,115.12,69.16c31.42,17.67,63.2,34.68,94.6,52.38,11.18,6.3,22.34,12.68,33.16,19.59,6.8,4.35,13.94,8.84,19.61,14.65,1.39,1.43,2.96,3.3,3.51,4.84.65,1.8,3.55,1.02,2.89-.8h0Z"/>
  <path class="cls-3" d="m558.09,949.79c.15-5.03-5.5-9.38-8.95-12.18-7.91-6.41-16.75-11.71-25.5-16.88-29.23-17.27-59.53-32.76-89.46-48.78-40.6-21.74-81-43.87-120.6-67.39-43.79-26.02-86.7-53.65-127.45-84.24-39.15-29.39-76.64-61.61-108.8-98.63-28.51-32.81-53.33-70.21-65.93-112.16-12.1-40.31-10.93-82.86,3.57-122.39,13.16-35.89,35.65-66.11,62.58-92.89,49.59-49.31,110.99-86.03,174.36-114.73,35.42-16.04,72.49-27.76,105.2-49.27,29.94-19.68,55.37-45.17,76.99-73.63,13.14-17.29,24.88-35.59,35.76-54.38.97-1.67-1.62-3.19-2.59-1.51-20.79,35.9-44.95,70.29-75.52,98.58-25.62,23.7-55.44,42.08-87.69,55.3-20.99,8.6-42.04,16.82-62.6,26.43-19.21,8.98-38.07,18.7-56.44,29.29-29.2,16.83-57.23,35.83-83.03,57.55-29.31,24.67-57.38,53.36-75.78,87.32C5.73,392.99-4.13,435.7,1.62,478.56c5.6,41.73,24.68,80.38,49.03,114.29,27.76,38.65,62.29,72.13,98.84,102.4,39.18,32.45,81.15,61.43,124.2,88.47,40.95,25.72,83,49.63,125.47,72.75,33.74,18.37,67.85,36.04,101.47,54.62,11.47,6.34,22.94,12.77,33.96,19.88,6.38,4.11,13.63,8.48,18.45,14.48,1.15,1.43,2.08,2.99,2.04,4.34-.06,1.93,2.94,1.93,3,0h0Z"/>
</svg>