<?xml version="1.0" encoding="UTF-8"?>
<svg id="Layer_1" data-name="Layer 1" xmlns="http://www.w3.org/2000/svg" xmlns:xlink="http://www.w3.org/1999/xlink" viewBox="0 0 757.3 466.41">
  <defs>
    <style>
      .cls-1 {
        fill: url(#radial-gradient);
      }
    </style>
    <radialGradient id="radial-gradient" cx="-308.71" cy="227.53" fx="-308.71" fy="227.53" r="1913.7" gradientUnits="userSpaceOnUse">
      <stop offset="0" stop-color="#00ffa0"/>
      <stop offset="1" stop-color="#050825"/>
    </radialGradient>
  </defs>
  <path class="cls-1" d="m249.81,169.21c3.08,9.23,5.98,17.9,8.85,26.49-3.17,3.33-5.98,7.45-9.82,10.03-5.56,3.73-11.77,6.56-17.9,9.35-3.62,1.65-8.39,2.34-6.48,7.78,1.81,5.15,6.14,3.65,10.04,2.46,11.79-3.59,21.77-9.93,29.76-20.25,11.19,17.19,23.87,32.13,39.59,44.37,15.72,12.24,33.03,21.41,52.65,27.94-24.3,20.97-25.75,49.11-25.35,78.48-78.53.82-156.58-2.44-235.11-8.4,2.62-17.59,3.35-34.57-7.89-49.39-10.98-14.48-26.7-19.83-45.18-22.27,1.61-12.31,2.62-24.45,4.94-36.34,1.83-9.4,4.77-18.67,8.08-27.67,7.68-20.92,8.47-42.6,6.58-64.26-1.75-20.03-5.38-39.91-8.54-59.8-.47-2.94-2.36-6.16-4.56-8.24-16.07-15.26-14.59-35.67-6.04-52.67,1.95-3.88,4.74-3.99,8.73-3.08,40.24,9.19,80.79,15.8,122.25,16.31,15.8.2,19.89-4.84,21.53-19.75C198.17.06,198.01.03,218.16,0c12.22-.02,24.43,0,35.88,0-3.57,35.11-7.16,70.34-10.85,106.57-12.44,0-25.94.22-39.43-.13-4.11-.11-8.01-.46-8.55,4.46-.55,5.02,3.77,6.07,7.56,6.23,10.06.42,20.14.52,30.21.61,3.68.04,7.36-.29,11.32-.46,1.17,13.9,2.3,27.33,3.56,42.39-10.99.99-21.8,1.98-32.61,2.9-1.52.13-3.42-.72-4.52-.07-2.15,1.27-3.87,3.28-5.76,4.98,1.77,1.82,3.58,5.23,5.32,5.2,10.68-.2,21.36-1.11,32.02-1.93,2.36-.18,4.68-.94,7.51-1.53Zm194.04,124.08c-2.44-3.8-5.64-7.39-9.21-10.13-24.97-19.16-65.83-11.88-82.29,15.06-10.71,17.53-11.36,37.18-10,58.3,39.01-1.61,77.39-3.19,116.33-4.79-1.13-21.45-3.67-41.07-14.83-58.44Zm25.14,76.21c-1.86-5.16-5.11-8.02-11.86-7.75-50.97,1.99-101.95,3.93-152.95,4.79-29.55.5-59.13-1.03-88.69-1.6-6.45-.12-12.91-.02-19.89-.02,1.54,4.76,2.89,9.11,4.34,13.43,4.48,13.27,4.49,13.68,18.75,13.74,64.67.28,129.35.54,194.02.29,20.13-.08,40.25-1.8,61.77-2.83-2.01-7.51-3.29-13.95-5.49-20.05Zm-296.15-6.32c-41.5-3-83-5.97-124.5-9.01-9.04-.66-10.97.46-12.64,9.34-1.73,9.21,1.45,17.31,7,24.48.96,1.24,3.41,1.86,5.17,1.86,38.56-.01,77.11-.12,115.67-.36,1.67-.01,4.2-.92,4.84-2.18,3.85-7.54,7.27-15.3,11.07-23.51-2.78-.27-4.69-.49-6.61-.63Zm-88.12-16.61c8.26-32.2-5.97-57.73-42.04-58.91v55.21c14.62,1.28,28.41,2.5,42.04,3.69Zm580.08,58.45H0l92.52,61.39h664.79l-92.52-61.39Zm-24.22-118.48c-13.67,1.16-25.78,2.19-39.23,3.34,9.7-29.15,18.72-56.27,30-90.2-34.53,40.01-64.37,74.6-96.53,111.86,14.96-1.09,26.86-1.95,39.39-2.87-9.35,28.15-18.27,55.04-29.52,88.91,34.82-40.33,64.84-75.09,95.89-111.04Zm-271.85-119.9v-40.73h-25.97v40.73h-19.39l32.37,56.05,32.37-56.05h-19.39Zm185.3,15.33v40.73h25.97v-40.73h19.39l-32.37-56.05-32.37,56.05h19.39Z"/>
</svg>