<?xml version="1.0" encoding="UTF-8"?>
<svg id="Layer_1" data-name="Layer 1" xmlns="http://www.w3.org/2000/svg" xmlns:xlink="http://www.w3.org/1999/xlink" viewBox="0 0 91.86 102.29">
  <defs>
    <style>
      .cls-1 {
        fill: url(#radial-gradient);
      }
    </style>
    <radialGradient id="radial-gradient" cx="-15.14" cy="-23" fx="-15.14" fy="-23" r="193.55" gradientUnits="userSpaceOnUse">
      <stop offset="0" stop-color="#00ffa0"/>
      <stop offset="1" stop-color="#050825"/>
    </radialGradient>
  </defs>
  <path class="cls-1" d="m32.58,73.84c-3.11,6.23-6.06,12.54-9.11,18.8-2.66,5.45-7.01,8.78-13.05,9.44-2.37.26-4.89-.06-7.23-.61-3.36-.8-3.9-2.18-2.4-5.38,2.96-6.3,6.03-12.55,9.04-18.83.89-1.85,1.75-3.71,2.95-6.27-2.1,0-3.62.02-5.14,0-1.46-.02-2.82-.4-2.78-2.16.04-1.7,1.36-2.14,2.83-2.21.49-.02,7.21-.26,7.21-.26l-.88.88s11.48-22.39,15.37-30.68c.58-1.24,1.04-2.92.68-4.16-2.82-9.87,2.61-19.29,12.18-21.7.33-.08.63-.33,1.26-.68,0-1.69,0-3.5,0-5.31,0-.86-.02-1.72.07-2.56C43.74.75,44.47-.01,45.93,0c.82,0,1.63.95,1.71,1.78.24,2.54.22,5.56.22,8.23,1.43.55,2.66,1.01,3.88,1.48,7.94,3.09,12.28,10.86,10.35,19.14-.63,2.7-.26,4.85.95,7.27,4.31,8.63,12.53,26.09,12.53,26.09l1.25,2.35,7.65.43s1.86.45,1.96,2.07c.12,1.92-1.65,1.92-1.65,1.92,0,0-3.43.31-5.59.41,1.61,3.43,3.01,6.49,4.46,9.51,2.43,5.07,4.93,10.1,7.34,15.18,1.66,3.5,1,4.84-2.74,5.79-8.26,2.11-15.75-1.12-19.72-8.78-3.03-5.85-8.57-17.83-8.57-17.83l-1.72-4.09s-8.26.04-10.38.04c0,2.26,0,4.06,0,5.86,0,1.37-.45,2.53-1.95,2.63-1.69.1-2.35-1.05-2.37-2.6-.03-1.8,0-3.6,0-5.82-3.11,0-9.18-.3-9.18-.3,0,0-1.05,1.73-1.62,2.75m0,0c-.06.11-.12.22-.17.32m-27.47,23.43c6.32,1.59,11.63-.93,14.45-6.66,4.85-9.86,9.55-19.79,14.31-29.7,2.74-5.69,5.47-11.38,8.2-17.05-2.99-1.75-5.7-3.32-8.76-5.11-9.34,19.39-18.69,38.79-28.2,58.52Zm44.92-53.55c.1.47.11.85.26,1.16,7.4,15.4,14.79,30.8,22.22,46.18,1.97,4.08,5.5,6.12,9.8,6.84,1.29.21,2.7-.23,4.54-.42-9.63-20-18.97-39.38-28.28-58.71-3.08,1.78-5.69,3.3-8.55,4.96Zm-3.92-28.77c-7.02-.07-12.34,5.14-12.36,12.12-.02,6.63,5.38,12.12,12.03,12.22,6.74.1,12.39-5.49,12.39-12.26,0-6.72-5.29-12.02-12.06-12.09Zm-9.1,49.75c-.25.53-.51,1.06-.77,1.6m0,0h7.11c.09-1.48-.07-2.77.32-3.86.31-.85,1.32-1.4,2.2-1.4.7,0,1.59.5,1.88,1.35.42,1.18.28,2.56.39,4.01h7.57c-3.34-6.92-6.37-13.2-9.79-20.28-3.16,6.59-6,12.5-8.91,18.58"/>
</svg>