<?xml version="1.0" encoding="UTF-8"?>
<svg id="Layer_1" data-name="Layer 1" xmlns="http://www.w3.org/2000/svg" xmlns:xlink="http://www.w3.org/1999/xlink" viewBox="0 0 129.22 108.05">
  <defs>
    <style>
      .cls-1 {
        fill: url(#radial-gradient);
      }

      .cls-2 {
        fill: url(#radial-gradient-2);
      }
    </style>
    <radialGradient id="radial-gradient" cx="9.67" cy="-4.28" fx="9.67" fy="-4.28" r="183.53" gradientUnits="userSpaceOnUse">
      <stop offset="0" stop-color="#00ffa0"/>
      <stop offset="1" stop-color="#050825"/>
    </radialGradient>
    <radialGradient id="radial-gradient-2" cx="9.67" cy="-4.28" fx="9.67" fy="-4.28" r="183.53" xlink:href="#radial-gradient"/>
  </defs>
  <path class="cls-1" d="m77.92,41c2.88,1.09,5.37,2.03,7.86,2.96,2.25.85,4.51,1.69,6.77,2.53,2.76,1.03,5.08,2.68,7.09,4.82,1.05,1.12,1.58,2.42,1.57,3.97-.02,3.44-.13,6.89.02,10.33.28,6.44-1.81,12.09-5.4,17.29-4.23,6.14-9.58,11.19-15.6,15.48-4.61,3.29-9.53,6.16-14.29,9.24-.94.61-1.75.55-2.74,0-9-5-17.42-10.78-24.58-18.25-4.42-4.61-8.17-9.69-9.82-15.99-.51-1.93-.8-3.98-.81-5.98-.07-12.96-.02-25.92-.06-38.88,0-1.4.44-2.14,1.76-2.72,11.98-5.22,22.65-12.33,31.32-22.23.77-.87,1.48-1.79,2.23-2.68,1.02-1.2,1.7-1.21,2.7.05,6.32,7.95,13.99,14.34,22.76,19.39,3.61,2.08,7.41,3.83,11.16,5.63,1.1.53,1.6,1.26,1.25,2.32-.35,1.07-.81,2.21-1.54,3.04-2.03,2.3-4.6,3.87-7.51,4.85-4.24,1.43-8.48,2.83-12.72,4.25-.36.12-.7.28-1.43.57Zm-20.84,52.57c.03-.05.06-.1.1-.15-.2-.19-.41-.37-.6-.56-3.11-3.02-6.42-5.86-9.28-9.11-3.47-3.94-5.9-8.57-5.96-13.97-.13-10.16-.03-20.32-.05-30.48,0-.91.35-1.44,1.16-1.78.99-.42,1.96-.89,2.91-1.38,7.41-3.76,13.98-8.61,19.44-14.91,1.27-1.47,1.26-2.65.03-4.13-.69-.83-1.37-1.66-2.04-2.5-1.01-1.27-1.44-1.27-2.45.04-6.38,8.25-14.53,14.23-23.95,18.53-1.16.53-1.59,1.17-1.58,2.44.04,9.13.16,18.25-.02,27.38-.12,6.03,1.81,11.21,5.4,15.9,4.51,5.89,10.23,10.41,16.38,14.44.16.1.35.16.52.24Z"/>
  <path class="cls-2" d="m129.22,40.97c-3.08,1.06-5.77,2.06-8.51,2.92-4.23,1.33-7.11,4.03-8.72,8.15-.92,2.36-1.91,4.7-2.87,7.05-.16.38-.34.75-.64,1.38-1.21-2.95-2.34-5.64-3.42-8.35-1.51-3.78-4.18-6.31-8.01-7.69-2.98-1.07-5.94-2.22-9.24-3.46,2.32-.79,4.3-1.47,6.29-2.14,1.18-.4,2.38-.76,3.54-1.19,3.58-1.34,6.1-3.79,7.5-7.35.96-2.44,1.85-4.91,2.78-7.36.15-.39.33-.77.61-1.45.94,2.55,1.9,4.8,2.61,7.12,1.62,5.27,5.03,8.55,10.36,9.94,2.48.65,4.9,1.53,7.71,2.42Z"/>
</svg>