<?xml version="1.0" encoding="UTF-8"?>
<svg id="Layer_1" data-name="Layer 1" xmlns="http://www.w3.org/2000/svg" xmlns:xlink="http://www.w3.org/1999/xlink" viewBox="0 0 119.28 103.35">
  <defs>
    <style>
      .cls-1 {
        fill: url(#radial-gradient);
      }

      .cls-2 {
        fill: url(#radial-gradient-2);
      }

      .cls-3 {
        fill: url(#radial-gradient-3);
      }
    </style>
    <radialGradient id="radial-gradient" cx="-59.72" cy="-1.66" fx="-59.72" fy="-1.66" r="315.44" gradientUnits="userSpaceOnUse">
      <stop offset="0" stop-color="#00ffa0"/>
      <stop offset="1" stop-color="#050825"/>
    </radialGradient>
    <radialGradient id="radial-gradient-2" cx="-59.72" cy="-1.66" fx="-59.72" fy="-1.66" r="315.44" xlink:href="#radial-gradient"/>
    <radialGradient id="radial-gradient-3" cx="-59.72" fx="-59.72" r="315.44" xlink:href="#radial-gradient"/>
  </defs>
  <path class="cls-1" d="m11.38,43.17c.1.08.17.11.2.16,4.2,6.78,8.4,13.56,12.63,20.38-.16.04-.26.09-.37.09-.28.01-.56,0-.84.02-1.67.06-3.34.11-5.01.17-.09,0-.19.03-.29.05,0,.1-.02.18,0,.26.17.59.35,1.18.53,1.78.16.55.3,1.1.48,1.64.27.77.57,1.53.87,2.28.75,1.86,1.62,3.66,2.62,5.39,1.24,2.14,2.64,4.17,4.21,6.08,1.67,2.03,3.49,3.9,5.48,5.61,1.73,1.48,3.57,2.83,5.51,4.03,1.24.77,2.53,1.47,3.82,2.14.78.4,1.59.74,2.4,1.07,1.01.41,2.03.8,3.05,1.18.52.19,1.05.33,1.58.49.59.18,1.18.36,1.78.52.41.11.83.19,1.24.28.46.1.92.21,1.38.32.06.01.13.03.19.04,1.18.17,2.36.37,3.54.51,2.15.26,4.31.4,6.48.31,1.7-.08,3.4-.18,5.09-.42.57-.08,1.12-.21,1.69-.31.48-.09.97-.16,1.45-.25.46-.09.92-.21,1.37-.32.33-.08.66-.17.99-.26.8-.22,1.61-.42,2.4-.67.79-.25,1.57-.54,2.35-.85.79-.31,1.57-.62,2.33-.98,1.05-.49,2.09-.99,3.11-1.53.92-.48,1.81-1.01,2.7-1.54.65-.39,1.29-.82,1.92-1.26,1.3-.91,2.57-1.88,3.78-2.92,1.9-1.63,3.68-3.39,5.31-5.3,1.59-1.87,3.04-3.85,4.33-5.94.88-1.42,1.7-2.88,2.42-4.39.63-1.32,1.21-2.67,1.72-4.04.29-.79.57-1.59.82-2.4.18-.59.38-1.17.55-1.76.11-.37.2-.75.3-1.16.11.34.1.37.03.61-.05.17-.07.35-.11.52-.04.19-.08.38-.12.57-.02.08-.04.16-.06.24-.12.54-.25,1.08-.37,1.62-.09.4-.17.8-.27,1.19-.07.28-.14.57-.23.85-.34,1.05-.66,2.12-1.05,3.16-.5,1.32-1.01,2.64-1.61,3.91-.82,1.75-1.73,3.45-2.76,5.1-1.06,1.7-2.2,3.34-3.44,4.91-1.15,1.44-2.37,2.81-3.68,4.11-.79.78-1.58,1.55-2.41,2.29-.79.7-1.61,1.37-2.44,2.01-1.45,1.13-2.97,2.16-4.53,3.13-1.35.84-2.75,1.61-4.18,2.31-1.1.55-2.23,1.06-3.38,1.48-.84.31-1.67.67-2.51.97-.5.18-1.03.31-1.54.47-.57.18-1.15.36-1.72.53-.28.08-.56.16-.85.22-.41.09-.83.17-1.25.25-.32.07-.63.15-.95.21-1,.19-1.99.39-3,.55-.82.13-1.66.19-2.49.29-.41.04-.81.09-1.22.13-.21.02-.42.04-.64.04-2.02,0-4.03,0-6.05,0-.28,0-.55-.05-.83-.08-.24-.02-.49-.05-.73-.07-.56-.04-1.11-.05-1.66-.17-.57-.12-1.17-.15-1.75-.25-.95-.15-1.91-.31-2.85-.5-.85-.17-1.69-.38-2.52-.59-.58-.15-1.15-.35-1.73-.52-.51-.15-1.03-.29-1.54-.46-.62-.21-1.24-.42-1.84-.66-1-.39-2-.79-2.97-1.23-.99-.45-1.97-.93-2.93-1.44-1.06-.57-2.1-1.16-3.12-1.79-1.59-.98-3.12-2.05-4.6-3.2-1.55-1.21-3.04-2.49-4.45-3.86-1.53-1.48-2.97-3.05-4.3-4.71-1.12-1.4-2.18-2.83-3.16-4.33-.96-1.49-1.87-3-2.69-4.58-.57-1.1-1.12-2.2-1.6-3.34-.3-.72-.64-1.42-.91-2.15-.48-1.3-.97-2.59-1.33-3.93-.07-.27-.15-.53-.24-.8-.08-.24-.18-.31-.43-.31-1.97.04-3.93.08-5.9.12-.03,0-.07,0-.1,0-.16,0-.35.08-.46-.09-.11-.17.06-.29.13-.43.63-1.17,1.25-2.35,1.88-3.52.72-1.34,1.45-2.68,2.17-4.03,1.06-1.98,2.11-3.96,3.17-5.94.54-1.02,1.1-2.03,1.65-3.04.67-1.24,1.34-2.49,2.02-3.74.09-.17.19-.33.32-.55Z"/>
  <path class="cls-2" d="m11.78,41.45c-.11-.26-.08-.47-.04-.67.11-.49.23-.98.35-1.47.2-.82.41-1.65.62-2.47.14-.57.28-1.14.46-1.69.22-.69.5-1.37.72-2.07.24-.75.55-1.46.84-2.19.53-1.29,1.12-2.56,1.76-3.8.85-1.65,1.79-3.24,2.83-4.78,1.11-1.64,2.31-3.22,3.61-4.72,1.17-1.35,2.41-2.64,3.7-3.86,1.8-1.7,3.72-3.24,5.76-4.66,1.45-1.01,2.96-1.94,4.51-2.8.96-.54,1.96-1.01,2.95-1.48.85-.4,1.73-.77,2.6-1.13.64-.26,1.3-.5,1.95-.74.46-.17.92-.33,1.38-.47.84-.26,1.69-.51,2.53-.76.44-.13.88-.25,1.32-.36.33-.08.67-.16,1-.23.48-.09.96-.17,1.44-.26.59-.11,1.19-.22,1.78-.32.14-.03.29-.04.44-.05.37-.04.76-.01,1.11-.17.03-.01.06-.01.1-.02.73-.07,1.46-.18,2.2-.2,1.56-.05,3.11-.08,4.67-.09.97,0,1.93.03,2.9.09.78.04,1.57.1,2.34.23.49.08.97.11,1.46.19.56.08,1.12.21,1.68.32.5.09,1,.16,1.49.26.45.09.89.2,1.33.31.62.15,1.24.3,1.85.47.67.19,1.34.4,2.01.61.7.22,1.4.42,2.08.68,1.24.48,2.49.95,3.69,1.55.99.49,1.99.95,2.96,1.46.82.43,1.63.89,2.42,1.37,1.8,1.08,3.53,2.27,5.17,3.57,1.09.87,2.15,1.78,3.19,2.71,1.46,1.29,2.8,2.7,4.07,4.16,1.1,1.26,2.15,2.57,3.12,3.93,1.26,1.77,2.43,3.6,3.49,5.51.61,1.11,1.18,2.24,1.73,3.38.33.69.61,1.4.9,2.1.25.6.49,1.21.73,1.82.19.5.36,1.01.53,1.52.18.54.37,1.07.54,1.62.1.31.18.63.26.94.04.15.12.23.27.24.15,0,.29,0,.44,0,1.88-.06,3.77-.12,5.65-.18.18,0,.35,0,.57,0-.03.15-.02.25-.06.32-.81,1.5-1.62,3-2.43,4.5-.95,1.76-1.88,3.53-2.83,5.28-.85,1.57-1.72,3.13-2.57,4.7-.92,1.72-1.82,3.44-2.74,5.16-.2.37-.41.74-.62,1.11-.14.26-.28.26-.44,0-.95-1.53-1.9-3.07-2.85-4.6-.72-1.16-1.45-2.31-2.16-3.47-1.21-1.96-2.41-3.93-3.62-5.89-1.24-2.01-2.48-4.01-3.72-6.01-.06-.09-.08-.2-.15-.34.75-.04,1.45-.09,2.15-.12.7-.03,1.41-.06,2.11-.08.7-.02,1.4-.02,2.08-.04.14-.24.08-.44.03-.62-.13-.52-.28-1.04-.44-1.55-.18-.56-.37-1.12-.57-1.67-.36-1.03-.75-2.04-1.18-3.04-.41-.94-.84-1.87-1.31-2.78-.78-1.48-1.61-2.92-2.55-4.31-.85-1.25-1.74-2.47-2.7-3.63-1.39-1.69-2.91-3.27-4.54-4.74-1.28-1.16-2.62-2.24-4.03-3.24-1.5-1.07-3.06-2.03-4.68-2.91-1.5-.82-3.05-1.52-4.62-2.18-.61-.26-1.25-.46-1.87-.68-.49-.18-.98-.35-1.47-.52-.26-.09-.53-.16-.8-.23-1.06-.28-2.12-.56-3.18-.81-.51-.12-1.03-.2-1.54-.29-.59-.11-1.19-.22-1.78-.33-.05,0-.1-.02-.14-.03-.56-.03-1.11-.14-1.66-.19-1.81-.15-3.63-.31-5.45-.24-.48.02-.95,0-1.43.03-.92.05-1.83.09-2.74.21-.54.07-1.07.12-1.61.19-.56.07-1.12.21-1.68.31-.39.07-.77.11-1.16.21-1.01.26-2.04.46-3.05.73-.78.21-1.55.48-2.32.73-.82.27-1.63.55-2.43.85-.73.28-1.45.59-2.16.93-1.01.48-2.01.98-2.99,1.5-.8.43-1.59.89-2.37,1.36-1.61.98-3.14,2.07-4.62,3.25-.89.71-1.74,1.47-2.58,2.22-1.49,1.33-2.84,2.78-4.13,4.3-1.5,1.78-2.87,3.64-4.08,5.63-.59.96-1.17,1.91-1.68,2.91-.55,1.1-1.08,2.22-1.6,3.34-.34.74-.65,1.49-.93,2.24-.26.68-.45,1.39-.69,2.08-.24.69-.47,1.39-.63,2.11-.07.29-.19.57-.3.92Z"/>
  <path class="cls-3" d="m72.04,27.53c-.12.35-.21.66-.33.96-.39.99-.79,1.97-1.19,2.95-.31.76-.63,1.53-.93,2.29-.3.76-.59,1.52-.89,2.28-.32.8-.65,1.59-.97,2.39-.29.72-.57,1.45-.85,2.17-.3.77-.6,1.55-.91,2.32-.3.75-.62,1.5-.92,2.25-.39.98-.77,1.97-1.16,2.95-.29.74-.6,1.48-.9,2.22-.03.09-.03.19-.04.33.23,0,.44.03.65.03,3.9,0,7.8,0,11.71,0,.17,0,.36-.05.56.07-.03.1-.05.21-.11.29-.79,1.15-1.59,2.3-2.39,3.44-.69.99-1.38,1.97-2.06,2.95-.94,1.35-1.88,2.69-2.82,4.04-1.03,1.48-2.05,2.96-3.09,4.44-.85,1.22-1.72,2.44-2.57,3.66-1.18,1.69-2.34,3.39-3.52,5.08-1.5,2.16-3.01,4.31-4.51,6.47-.52.75-1.02,1.51-1.54,2.26-.11.16-.27.3-.47.42.06-.33.12-.65.19-.98.11-.49.24-.98.36-1.47.12-.47.24-.95.35-1.42.15-.65.29-1.31.45-1.96.13-.54.27-1.08.4-1.62.1-.41.16-.83.26-1.24.1-.44.23-.88.34-1.32.08-.35.16-.7.24-1.05.09-.41.16-.83.25-1.24.07-.32.15-.63.22-.95.26-1.11.52-2.23.79-3.34.11-.48.25-.95.36-1.43.1-.41.17-.83.26-1.24.1-.43.21-.85.31-1.28.08-.32.16-.63.23-.95.1-.44.18-.89.28-1.36-.14-.03-.25-.07-.35-.07-.15-.01-.29,0-.44,0-4.43,0-8.85,0-13.28,0-.21,0-.43.05-.65-.1.05-.16.1-.33.16-.49.39-.97.79-1.93,1.18-2.9.28-.69.55-1.39.82-2.08.39-.98.78-1.97,1.16-2.95.52-1.33,1.04-2.67,1.57-3.99.45-1.12.92-2.23,1.37-3.34.31-.77.58-1.55.88-2.32.3-.76.62-1.5.92-2.25.31-.76.6-1.52.9-2.27.32-.8.65-1.59.96-2.39.37-.92.73-1.85,1.1-2.78.31-.78.63-1.56.94-2.35.37-.92.73-1.84,1.09-2.77.16-.42.16-.42.6-.42,4.87,0,9.74,0,14.61,0,.13,0,.25.02.44.04Z"/>
</svg>