<?xml version="1.0" encoding="UTF-8"?>
<svg id="Layer_1" data-name="Layer 1" xmlns="http://www.w3.org/2000/svg" viewBox="0 0 144.89 70.08">
  <defs>
    <style>
      .cls-1 {
        fill: #fff;
      }

      .cls-2 {
        fill: #00ffa0;
      }
    </style>
  </defs>
  <polygon class="cls-2" points="87.83 0 83.1 4.73 80.82 4.73 85.55 0 83.56 0 78.83 4.73 76.55 4.73 81.28 0 79.29 0 74.56 4.73 72.28 4.73 77.01 0 68.58 0 59.08 9.5 74.29 9.5 74.29 8.18 83.83 8.18 93.33 0 87.83 0"/>
  <g>
    <path class="cls-1" d="m34.52,37.47h2.46l10.34,28.25-.48-.13,6.51-17.6,1.01,2.77-7.52,19.32-12.32-32.6Zm14.39,0h2.16l10.74,28.25-.66-.18,10.47-28.07h2.29l-12.54,32.56-12.45-32.56Z"/>
    <path class="cls-1" d="m87.1,68.98c-1.64,0-3.13-.37-4.47-1.12-1.33-.75-2.39-1.8-3.17-3.15-.78-1.35-1.17-2.92-1.17-4.71,0-1.91.41-3.54,1.23-4.91.82-1.36,1.94-2.4,3.34-3.12s3.01-1.08,4.8-1.08c1.52,0,2.97.46,4.33,1.36,1.36.91,2.34,2.05,2.93,3.43l-.31.62.26-4.88h1.85v17.2h-2.07v-5.32l.44.79c-.21.59-.56,1.17-1.06,1.74-.5.57-1.11,1.1-1.83,1.58-.72.48-1.51.87-2.38,1.14-.87.28-1.78.42-2.75.42Zm.44-1.76c1.29,0,2.46-.27,3.5-.81,1.04-.54,1.88-1.3,2.53-2.27.64-.97,1.01-2.08,1.1-3.34v-2.46c-.23-1.08-.7-2.05-1.38-2.9-.69-.85-1.53-1.52-2.53-2.02-1-.5-2.08-.75-3.26-.75-1.29,0-2.48.3-3.56.9-1.09.6-1.95,1.44-2.6,2.53-.65,1.09-.97,2.36-.97,3.83,0,1.35.32,2.57.97,3.67.65,1.1,1.52,1.98,2.62,2.64s2.29.99,3.59.99Z"/>
    <path class="cls-1" d="m104.57,35.18h2.07v33.44h-2.07v-33.44Z"/>
    <path class="cls-1" d="m114.47,68.62v-33.44h2.07v33.44h-2.07Zm1.36-6.25l-.18-2.07,10.52-9.24,1.28,1.1-11.62,10.21Zm4.66-4.93l8.01,11.18h-2.42l-7.04-10.03,1.45-1.14Z"/>
  </g>
  <path class="cls-1" d="m138.76,68.99c-1.12,0-2.15-.26-3.08-.79-.93-.53-1.67-1.25-2.22-2.16-.55-.92-.83-1.95-.83-3.1s.28-2.22.83-3.14,1.29-1.63,2.22-2.15c.93-.51,1.96-.77,3.08-.77s2.18.26,3.1.77c.92.51,1.65,1.23,2.2,2.15s.83,1.96.83,3.14-.27,2.18-.83,3.1c-.55.92-1.28,1.64-2.2,2.16-.92.53-1.95.79-3.1.79Zm-.04-1.1c.93,0,1.77-.21,2.53-.64s1.36-1.02,1.8-1.78c.44-.76.66-1.6.66-2.53s-.22-1.8-.66-2.55c-.44-.75-1.04-1.34-1.8-1.78-.76-.44-1.6-.66-2.53-.66s-1.73.22-2.48.66c-.75.44-1.34,1.03-1.78,1.78-.44.75-.66,1.6-.66,2.55s.22,1.77.66,2.53c.44.76,1.03,1.35,1.78,1.78.75.43,1.57.64,2.48.64Zm-2.16-8.44h2.24c.61,0,1.14.16,1.58.48.44.32.66.83.66,1.54,0,.61-.18,1.12-.55,1.52-.37.4-.94.61-1.72.61h-1.1v2.57h-1.1v-6.71Zm1.98,3.23c.49,0,.83-.11,1.03-.33.2-.22.29-.5.29-.84,0-.42-.13-.71-.38-.88-.26-.17-.53-.26-.83-.26h-.95v2.31h.84Zm1.21.62l1.47,2.86h-1.25l-1.36-2.82,1.14-.04Z"/>
  <path class="cls-2" d="m79.4,7.44v26.22h-6.38V7.44"/>
  <polygon class="cls-2" points="114.76 0 110.03 4.73 107.75 4.73 112.48 0 110.49 0 105.76 4.73 103.48 4.73 108.21 0 106.22 0 101.49 4.73 99.21 4.73 103.94 0 95.51 0 86.01 9.5 101.22 9.5 101.22 8.18 110.76 8.18 120.26 0 114.76 0"/>
  <path class="cls-2" d="m106.32,7.44v26.22h-6.38V7.44"/>
  <g>
    <path class="cls-2" d="m32.37,20.09L40.73,0h-5.4l-5.48,17.98L22.57,0h-6.34l2.79,5.82-5.18,12.9L7.48,0H0l13.02,33.66,9.54-20.47,9.81,20.47s2.2-9.21,3.16-13.57h-3.16Z"/>
    <path class="cls-2" d="m58.19,33.66h7.39L50.97,0h-.35l-9.36,17.27h5.45l-14.34,16.39h9.94l2.64-6.34h10.75l2.5,6.34Zm-11.01-11.7l3.29-7.89,3.11,7.89h-6.4Z"/>
  </g>
</svg>