<?xml version="1.0" encoding="UTF-8"?>
<svg id="Layer_1" data-name="Layer 1" xmlns="http://www.w3.org/2000/svg" xmlns:xlink="http://www.w3.org/1999/xlink" viewBox="0 0 754.73 678.28">
  <defs>
    <style>
      .cls-1 {
        fill: url(#linear-gradient-2);
      }

      .cls-2 {
        fill: url(#linear-gradient-6);
      }

      .cls-3 {
        fill: url(#radial-gradient-5);
      }

      .cls-4 {
        fill: url(#radial-gradient-4);
      }

      .cls-5 {
        fill: url(#linear-gradient-10);
      }

      .cls-6 {
        fill: none;
        stroke: url(#linear-gradient);
        stroke-miterlimit: 10;
        stroke-width: 3px;
      }

      .cls-7 {
        fill: url(#radial-gradient);
      }

      .cls-8 {
        fill: url(#linear-gradient-5);
      }

      .cls-9 {
        fill: url(#radial-gradient-2);
      }

      .cls-10 {
        fill: url(#radial-gradient-3);
      }

      .cls-11 {
        fill: url(#linear-gradient-7);
      }

      .cls-12 {
        fill: url(#linear-gradient-9);
      }

      .cls-13 {
        fill: url(#linear-gradient-3);
      }

      .cls-14 {
        fill: url(#linear-gradient-4);
      }

      .cls-15 {
        fill: url(#linear-gradient-8);
      }
    </style>
    <linearGradient id="linear-gradient" x1="0" y1="348.16" x2="754.73" y2="348.16" gradientUnits="userSpaceOnUse">
      <stop offset="0" stop-color="#00ffa0"/>
      <stop offset=".11" stop-color="#00ec96"/>
      <stop offset=".33" stop-color="#01bb7e"/>
      <stop offset=".64" stop-color="#026c57"/>
      <stop offset="1" stop-color="#050825"/>
    </linearGradient>
    <radialGradient id="radial-gradient" cx="-427.27" cy="359.5" fx="-427.27" fy="359.5" r="1085.26" gradientUnits="userSpaceOnUse">
      <stop offset="0" stop-color="#00ffa0"/>
      <stop offset="1" stop-color="#050825"/>
    </radialGradient>
    <radialGradient id="radial-gradient-2" cy="359.5" fy="359.5" r="1085.26" xlink:href="#radial-gradient"/>
    <radialGradient id="radial-gradient-3" cx="-427.27" cy="359.5" fx="-427.27" fy="359.5" r="1085.26" xlink:href="#radial-gradient"/>
    <radialGradient id="radial-gradient-4" cx="-427.27" cy="359.5" fx="-427.27" fy="359.5" r="1085.26" xlink:href="#radial-gradient"/>
    <radialGradient id="radial-gradient-5" cx="-427.27" cy="359.5" fx="-427.27" fy="359.5" r="1085.26" xlink:href="#radial-gradient"/>
    <linearGradient id="linear-gradient-2" x1="152.52" y1="67.61" x2="595.19" y2="211.61" gradientUnits="userSpaceOnUse">
      <stop offset=".17" stop-color="#00ffa0"/>
      <stop offset=".24" stop-color="#00f49a"/>
      <stop offset=".37" stop-color="#00d78c"/>
      <stop offset=".54" stop-color="#01a875"/>
      <stop offset=".74" stop-color="#036854"/>
      <stop offset=".96" stop-color="#04162c"/>
      <stop offset="1" stop-color="#050825"/>
    </linearGradient>
    <linearGradient id="linear-gradient-3" x1="171.66" y1="8.79" x2="614.32" y2="152.79" xlink:href="#linear-gradient-2"/>
    <linearGradient id="linear-gradient-4" x1="158.39" y1="49.58" x2="601.05" y2="193.58" xlink:href="#linear-gradient-2"/>
    <linearGradient id="linear-gradient-5" x1="176.44" y1="-5.91" x2="619.1" y2="138.09" xlink:href="#linear-gradient-2"/>
    <linearGradient id="linear-gradient-6" x1="147.14" y1="84.15" x2="589.81" y2="228.15" xlink:href="#linear-gradient-2"/>
    <linearGradient id="linear-gradient-7" x1="122" y1="404.39" x2="327.34" y2="129.72" gradientUnits="userSpaceOnUse">
      <stop offset="0" stop-color="#00ffa0"/>
      <stop offset=".61" stop-color="#036653"/>
      <stop offset="1" stop-color="#050825"/>
    </linearGradient>
    <linearGradient id="linear-gradient-8" x1="152.92" y1="427.5" x2="358.26" y2="152.84" xlink:href="#linear-gradient-7"/>
    <linearGradient id="linear-gradient-9" x1="107.07" y1="393.22" x2="312.4" y2="118.56" xlink:href="#linear-gradient-7"/>
    <linearGradient id="linear-gradient-10" x1="134.8" y1="413.95" x2="340.13" y2="139.29" xlink:href="#linear-gradient-7"/>
  </defs>
  <polygon class="cls-6" points="46.88 675.15 1.6 389.49 371.07 19.74 669.97 119.39 753.01 368.5 549.47 572.11 250.2 473.03 46.88 675.15"/>
  <g>
    <path class="cls-7" d="m215.53,186.92c62.64,20.87,124.82,41.58,187.9,62.59-1.17-7.4-2.12-13.4-3.17-20-62.64-20.87-124.83-41.59-188.13-62.68,1.31,7.74,2.36,13.95,3.4,20.1Z"/>
    <path class="cls-9" d="m639.75,92C547.25,61.16,455.46,30.56,363.78,0c-51.05,51.05-101.57,101.57-153.29,153.29,168.97,56.35,336.78,112.31,505.93,168.71-25.94-77.82-51.35-154.04-76.67-230.01Z"/>
    <path class="cls-10" d="m175.96,188.08c-51.36,51.36-101.96,101.96-153.3,153.3,76.93,25.64,153.05,51,229.24,76.39,50.99-50.99,101.64-101.64,153.31-153.31-77.48-25.82-153.62-51.19-229.25-76.38Z"/>
    <path class="cls-4" d="m24.31,356.12c13.48,83.59,26.72,165.7,40.15,249,51.78-51.78,102.43-102.43,153.31-153.31-1.79-11.04-3.56-21.97-5.34-33-62.75-20.91-124.83-41.59-188.12-62.69Z"/>
    <path class="cls-3" d="m299.66,433.7c77.04,25.68,152.95,50.99,228.83,76.29,59.72-59.72,118.58-118.58,178.29-178.29-77.16-25.72-153.3-51.1-228.84-76.28-59.57,59.57-118.56,118.56-178.28,178.28Zm106.66-21.51c1.02-8.74,10.63-20.06,22.54-19.77,5.61.14,9.67,3.86,10.19,9.48.49,5.31-1.84,9.64-4.8,13.86-4.62,4.6-9.7,8.35-16.66,8.61-7.54.28-12.14-4.63-11.26-12.18Zm34.65,27.2c-6.76,1.46-11.87-3.02-10.75-9.76.37-2.25,1.36-4.5,2.51-6.5,3.14-5.5,10.33-9.04,15.93-8.1,4.5.75,6.91,3.67,6.8,8.23-.09,3.67-1.66,6.76-3.68,9.61-3.12,3.08-6.46,5.58-10.8,6.52Zm28.99.94c-1.83,2.13-4.88,4.32-8.93,4.64-4.82.38-8.14-3.18-7.52-7.93.83-6.35,7.3-12.03,13.72-12.06,3.91-.02,6.61,2.6,6.72,6.56.08,3.12-1.34,5.63-4,8.79Zm21.08-7.42c-.44,1.8-1.47,3.07-3.18,5.08-1.14,1.34-3.55,3.24-5.99,3.7-4.08.78-6.83-2.29-6.2-6.27.72-4.59,5.54-8.79,10.13-8.83,3.7-.03,6.11,2.73,5.23,6.31Zm13.48.58c-1.67,1.79-4.23,3.31-7.34,2.34-1.09-.34-2.29-1.94-2.51-3.14-.54-2.96.8-5.39,3.24-7.19,3.19-2.36,6.57-2.57,8.36-.49,1.62,1.89,1.07,5.26-1.75,8.48Zm46.08-81.98c-10.89,11.2-24.1,18.05-39.48,20.53-8.53,1.38-17.14,2.21-25.69,3.51-7.89,1.2-14.95,3.99-19.77,10.98-3.24,4.7-3.65,9.12-.77,13.93,5.76,9.61,18.93,14.28,27.73,11.9,5.03-1.36,9.72-3.24,14-6.16,11.77-8.03,20.43-18.76,27.16-31.19.76-1.4,1.16-3.07,2.95-3.84-1.18,4.42-2.7,8.66-4.45,12.8-4.29,10.1-10.09,19.12-18.52,26.37-14.75,12.68-36.16,15.97-52.63,7.36-19.18-10.03-21.05-31.68-5.62-47.09,5.64-5.63,13-8.17,20.71-8.65,12.41-.78,24.86-.85,37.3-1.14,13.59-.32,26.6-2.37,37.32-11.78.64-.56,1.42-.97,2.13-1.45.16.2.31.4.47.59-.94,1.11-1.81,2.28-2.82,3.32Zm-1.89-34.61c-1.49-1.6-3.19-3.03-4.88-4.43-3.35-2.79-4.56-2.6-6.93,1.02-.64.98-1.12,2.06-1.68,3.09-1.81,3.35-3.43,6.83-5.49,10.02-4.58,7.12-9.9,13.53-18.44,16.14-1.85.57-3.82.78-5.73,1.16-.08-.27-.16-.54-.24-.8.43-.32.81-.76,1.29-.94,6.44-2.42,10.7-7.28,13.54-13.17,2.98-6.18,5.07-12.78,7.78-19.1,1.48-3.47,3.06-7,5.25-10.04,3.26-4.52,5.96-4.76,11.01-2.1,6.99,3.69,12.07,9.37,15.7,16.15,3.15,5.88,3.9,12.33.9,18.64-4.46,9.39-11.91,15.41-21.71,18.61-7.63,2.49-15.56,2.8-23.47,2.81-7.9.01-15.81-.58-23.71-.61-7.51-.03-14.98.51-21.55,4.86-.36.24-.89.23-1.34.33,1.05-1.89,2.33-3.28,3.81-4.41,5.74-4.41,12.33-6.88,19.48-7.29,9.2-.53,18.44-.49,27.65-.8,10.74-.36,20.48-3.28,28.29-11.15,5.46-5.5,5.73-12.32.47-17.98Z"/>
  </g>
  <g>
    <path class="cls-1" d="m481.07,191.28c-2.93.39-5.2,2.88-5.2,5.92,0,3.31,2.69,6,6,6s6-2.69,6-6c0-3.04-2.27-5.52-5.2-5.92v-43.47l-194.2-64.74-.5,1.51,193.11,64.38v42.32Z"/>
    <path class="cls-13" d="m422,105.92l42.69-7.53c.9,2.82,3.74,4.62,6.73,4.09,3.26-.58,5.44-3.69,4.86-6.95-.58-3.26-3.69-5.44-6.95-4.86-2.99.53-5.04,3.19-4.92,6.15l-42.3,7.46-118.5-38.76-.5,1.52,118.69,38.82.19.06Z"/>
    <path class="cls-14" d="m492.62,173.27c0,3.31,2.69,6,6,6s6-2.69,6-6c0-3.04-2.27-5.52-5.2-5.92v-26.15l-80.3-25.7-.49,1.52,79.19,25.34v24.99c-2.93.39-5.2,2.88-5.2,5.92Z"/>
    <path class="cls-8" d="m429.98,89.97l47.85-9.57,32.93,10.98,5.25,14.01c-2.61,1.4-3.86,4.52-2.79,7.37,1.16,3.1,4.62,4.67,7.72,3.51s4.67-4.62,3.51-7.72c-1.07-2.84-4.06-4.37-6.95-3.71l-5.52-14.72-34.06-11.35-47.85,9.57-113.71-37.16-.5,1.52,113.91,37.22.2.07Z"/>
    <path class="cls-2" d="m523.88,226.1c-2.88-.96-5.96.4-7.26,3.05l-45.92-15.37v-54.81l-194.2-64.74-.5,1.51,193.11,64.38v54.81l47.01,15.73c-.56,2.9,1.08,5.84,3.96,6.81,3.14,1.05,6.54-.64,7.59-3.78,1.05-3.14-.64-6.54-3.78-7.59Z"/>
  </g>
  <g>
    <path class="cls-11" d="m204.58,317.28l-18.13-23.73,70.98-70.98-1.13-1.13-71.97,71.97,18.16,23.77-12.17,13.11c-2.42-1.71-5.77-1.43-7.84.8-2.25,2.43-2.11,6.22.31,8.47s6.22,2.11,8.47-.31c2.07-2.23,2.1-5.59.22-7.87l13.09-14.09Z"/>
    <path class="cls-15" d="m282.96,254.46l-1.13-1.13-52.77,52.77,11.8,20.64-13.83,18.45-14.94,1.76c-.73-2.86-3.47-4.83-6.48-4.47-3.29.39-5.64,3.37-5.26,6.66s3.37,5.64,6.66,5.26c3.02-.36,5.22-2.9,5.27-5.86l15.62-1.84,14.88-19.83-11.72-20.49,51.91-51.91Z"/>
    <path class="cls-12" d="m187.59,317.23c2.6-2.05,3.04-5.82.99-8.42-1.88-2.38-5.2-2.93-7.75-1.42l-16.11-20.4,46.46-46.88-1.13-1.12-47.45,47.88,16.98,21.51c-2.06,2.12-2.3,5.48-.42,7.87,2.05,2.6,5.82,3.04,8.42.99Z"/>
    <path class="cls-5" d="m228.62,278.5l-1.14-1.12-23.37,23.81,7.23,10.63c-2.2,1.97-2.68,5.3-.97,7.82,1.86,2.74,5.59,3.45,8.33,1.59s3.45-5.59,1.59-8.33c-1.71-2.51-4.98-3.29-7.63-1.97l-6.49-9.55,22.46-22.87Z"/>
  </g>
</svg>