<?xml version="1.0" encoding="UTF-8"?>
<svg id="Layer_1" data-name="Layer 1" xmlns="http://www.w3.org/2000/svg" xmlns:xlink="http://www.w3.org/1999/xlink" viewBox="0 0 470.91 470.67">
  <defs>
    <style>
      .cls-1 {
        fill: url(#radial-gradient);
      }
    </style>
    <radialGradient id="radial-gradient" cx="-528.68" cy="-201.37" fx="-528.68" fy="-201.37" r="2581.28" gradientUnits="userSpaceOnUse">
      <stop offset="0" stop-color="#00ffa0"/>
      <stop offset="1" stop-color="#050825"/>
    </radialGradient>
  </defs>
  <path class="cls-1" d="m422.82,282.87c-2.73-4.53-4.27-11.04-3.47-16.19,3.25-21.06,3.32-41.89-.1-62.93-.75-4.6.56-10.26,2.74-14.5,8.62-16.7,18.76-32.65,26.87-49.57,12.52-26.14,22.26-53.31,22.05-82.91-.23-31.17-15.57-51.24-46.24-55.02-16.21-2-33.58.78-49.78,4.34-20.27,4.46-39.2,12.69-57.73,22.84l-1.71-2.7.1-.06-5.36-8.44-18.05,34.57,38.97-1.65-3.91-6.16-.1.06-2.45-3.85c26.58-13.31,53.66-25.06,84.06-26.81,25.84-1.48,43.72,10.04,47.05,32.12,1.48,9.79,1.33,20.25-.34,30.03-5.92,34.73-21.53,65.7-39.37,95.64-.69,1.17-2.16,1.87-3.83,3.27-1.56-3.8-2.76-6.76-3.97-9.71-32.61-79.71-115.13-127.09-199.83-114.02-9.13,1.41-15.94-.02-23.58-4.71C149.84,25.07,113.61,6.24,72.13.89,30.69-4.46-1.36,14.13.61,62.25c1.33,32.62,13.33,61.82,28.19,90.48l-2.42,1.59-.07-.1-8.35,5.51,34.89,17.44-2.33-38.93-6.09,4.02.07.1-4.05,2.67c-13.04-26.11-24.44-52.73-26.15-82.59-1.48-25.92,9.97-43.93,31.94-47.16,10.1-1.49,20.87-1.19,30.97.51,34.43,5.81,65.01,21.49,94.72,39.04,1.19.7,1.97,2.1,3.2,3.47-78.13,32.6-123.99,89.71-125.09,174.17-1.14,87.08,44.9,146.08,125.32,180-21.27,17.81-79.79,41.86-105.02,43.54-42.58,2.84-58.57-12.5-55.29-54.8,2.22-28.62,14.41-54.17,27.22-79.33l1.69.85-.05.11,8.93,4.51-2.2-38.94-32.63,21.37,6.51,3.29.05-.11,5.4,2.72c-14.31,26.97-25.39,55.12-29.24,85.86-4.54,36.27,12.1,62.52,45.28,67.89,12.74,2.06,26.6.4,39.46-2.1,37.17-7.23,69.84-25.29,101.94-44.54,4.59-2.76,10.75-4.05,16.19-4.05,16.77.02,33.77,3.06,50.28,1.24,73.87-8.15,124.96-47.77,154.67-115.54,1.22-2.79,2.5-5.57,3.75-8.35,1.14-.24,2.28-.48,3.41-.73,9.86,20.93,20.26,41.63,29.4,62.86,8.4,19.51,13.01,40.01,11.39,61.57-1.44,19.2-13.69,33.84-32.31,35.83-10.51,1.12-21.49.81-31.91-.94-26.7-4.48-50.97-15.8-74.64-28.46l1.32-2.29.1.06,4.99-8.67-39,.04,19.53,33.76,3.64-6.32-.1-.06,2.62-4.55c6.74,3.57,13.19,6.97,19.81,10.02,27.83,12.83,56.33,23.28,87.7,22.38,26.24-.75,47.35-17.77,50.67-43.54,1.75-13.54,1.27-27.94-1.29-41.36-7.15-37.5-25.34-70.49-44.82-102.85Zm-118.28-203.97c-21.6-2.56-26.56,14.45-35.34,28.99-6.27-5.87-14.4-8.73-17.56-18.79-1.48-4.72-8.87-8.05-14.14-11-6.95-3.88-14.45-6.77-21.07-11.85,30.8-5.48,59.76-1.22,88.11,12.65Zm-104.86,318.74c-3.63,2.44-9.88,3.43-14.07,2.21-78.09-22.82-130.77-101.99-121.56-182.11.4-3.51,1.37-6.96,2.21-11.05,1.5.75,3.03,1,3.52,1.84,11.39,19.89,32.36,26.07,51.07,35.2,4.57,2.23,6.92,3.99,6.33,8.95-.11.96.12,1.97-.03,2.92-3.43,21.51,8.86,33.62,25.39,43.68,2.84,1.73,5.79,6.51,5.51,9.6-2.11,23.36,8.44,43.58,15.31,64.65,2.83,8.69,17.54,15.57,26.74,13.09,10.09-2.72,11.9-10.83,11.61-19.91-.02-.65.09-1.32-.02-1.95-2.09-11.86,1.97-19.53,14.07-23.26,12.14-3.75,18.76-11.84,17.51-25.59-.21-2.34,3.71-6.29,6.56-7.46,14.2-5.85,23.34-21.6,20.68-37.04-1.39-8.08-7.27-11.99-14.49-11.73-7.87.28-12.1-3.27-15.1-9.47-5.54-11.44-14.65-15.99-27-14.23-10.18,1.45-17.58-2.23-24.59-9.85-13.91-15.13-15.8-14.89-33.77-3.94-4.05,2.47-8.22,4.74-13.28,7.65-.32-3.87-.82-6.38-.67-8.85.58-9.11-3.39-15.52-11.09-20.04-3.07-1.8-7.02-3.34-8.61-6.12-2.17-3.81-3.25-8.7-3.18-13.1.03-1.64,4.42-3.83,7.16-4.7,13.46-4.3,27.13-7.97,40.55-12.41,14.1-4.67,24.88-13.88,32.03-26.81,6.03-10.91,15.44-15.37,27.06-17.96,7.48-1.67,14.39-5.89,23.95-9.99,12.74,11.13,27.78,24.27,43.15,37.69-1.49,1.29-2.24,2.44-2.79,2.35-19.97-3.25-28.68,10.98-34.24,25.26-3.08,7.92.96,18.66,2,28.11,1.26,11.39,8.36,16.06,19.15,18.59,12.85,3.01,25.04,5.7,37.9-.01,5.5-2.44,14.07,4.64,15.1,11.39.29,1.91.14,3.89.1,5.84-.23,12.35-1.47,24.95,10.23,34.72-9.76,10.31-18.75,20.04-27.99,29.52-34.3,35.21-71.57,66.94-112.38,94.35Zm14.85,7.25c49.41-35.45,92.92-74.49,133.99-119.94,1.99,4.6,3.89,7.61,4.53,10.87.68,3.43.53,7.15.1,10.66-1.48,11.94,2.13,21.63,11.78,29.05,2.01,1.54,3.49,3.76,5.16,5.6-31.64,47.73-103.9,74.48-155.56,63.76Zm135.81-234.03c-24.76-3.62-35.19-22.73-52.81-37.07,17.25-4.66,31.94-11.67,47.41-.04,8.79,6.6,18.85,8.9,29.54-1.17,5.89,9.67,10.86,17.82,16.1,26.41-12.71,9.12-23.63,14.31-40.24,11.88Z"/>
</svg>